<?xml version="1.0" encoding="UTF-8" standalone="no"?>
<!-- Created with Inkscape (http://www.inkscape.org/) -->

<svg
   xmlns:dc="http://purl.org/dc/elements/1.1/"
   xmlns:cc="http://creativecommons.org/ns#"
   xmlns:rdf="http://www.w3.org/1999/02/22-rdf-syntax-ns#"
   xmlns:svg="http://www.w3.org/2000/svg"
   xmlns="http://www.w3.org/2000/svg"
   xmlns:sodipodi="http://sodipodi.sourceforge.net/DTD/sodipodi-0.dtd"
   xmlns:inkscape="http://www.inkscape.org/namespaces/inkscape"
   width="232cm"
   height="102cm"
   viewBox="0 0 2319.9999 1020"
   version="1.1"
   id="svg8"
   inkscape:version="0.92.1 r15371"
   sodipodi:docname="sabong-pattern.svg">
  <defs
     id="defs2" />
  <sodipodi:namedview
     id="base"
     pagecolor="#ffffff"
     bordercolor="#666666"
     borderopacity="1.0"
     inkscape:pageopacity="0.0"
     inkscape:pageshadow="2"
     inkscape:zoom="0.175"
     inkscape:cx="4747.312"
     inkscape:cy="2151.0982"
     inkscape:document-units="mm"
     inkscape:current-layer="layer2"
     showgrid="false"
     units="cm"
     inkscape:snap-nodes="true"
     inkscape:snap-bbox="true"
     inkscape:snap-bbox-midpoints="true"
     inkscape:snap-object-midpoints="true"
     fit-margin-top="0"
     fit-margin-left="0"
     fit-margin-right="0"
     fit-margin-bottom="0"
     inkscape:window-width="1920"
     inkscape:window-height="1043"
     inkscape:window-x="0"
     inkscape:window-y="37"
     inkscape:window-maximized="0"
     inkscape:showpageshadow="false"
     showborder="false"
     showguides="false"
     inkscape:guide-bbox="true"
     inkscape:measure-start="1808.83,897.473"
     inkscape:measure-end="1878.43,897.83"
     inkscape:snap-bbox-edge-midpoints="true"
     inkscape:snap-to-guides="true"
     inkscape:bbox-nodes="true"
     inkscape:object-paths="true">
    <sodipodi:guide
       position="154.345,49.514878"
       orientation="1,0"
       id="guide4519"
       inkscape:locked="false"
       inkscape:label=""
       inkscape:color="rgb(0,0,255)" />
    <sodipodi:guide
       position="9.9999997,733.38757"
       orientation="1,0"
       id="guide4521"
       inkscape:locked="false"
       inkscape:label=""
       inkscape:color="rgb(0,0,255)" />
    <sodipodi:guide
       position="-282.23661,9.9999997"
       orientation="0,1"
       id="guide4525"
       inkscape:locked="false"
       inkscape:label=""
       inkscape:color="rgb(0,0,255)" />
    <sodipodi:guide
       position="-284.37477,135"
       orientation="0,1"
       id="guide4527"
       inkscape:locked="false"
       inkscape:label=""
       inkscape:color="rgb(0,0,255)" />
    <sodipodi:guide
       position="-352.79576,1010"
       orientation="0,1"
       id="guide4529"
       inkscape:locked="false"
       inkscape:label=""
       inkscape:color="rgb(0,0,255)" />
    <inkscape:grid
       type="xygrid"
       id="grid4533" />
    <sodipodi:guide
       position="316.00002,288.51879"
       orientation="1,0"
       id="guide4602"
       inkscape:locked="false"
       inkscape:label=""
       inkscape:color="rgb(0,0,255)" />
    <sodipodi:guide
       position="278.94642,152"
       orientation="0,1"
       inkscape:locked="false"
       id="guide4635"
       inkscape:label=""
       inkscape:color="rgb(0,0,255)" />
    <sodipodi:guide
       position="738.00001,270.34446"
       orientation="1,0"
       id="guide4639"
       inkscape:locked="false" />
    <sodipodi:guide
       position="1160,279.16167"
       orientation="1,0"
       id="guide4641"
       inkscape:locked="false" />
    <sodipodi:guide
       position="1581.9999,273.81628"
       orientation="1,0"
       id="guide4643"
       inkscape:locked="false" />
    <sodipodi:guide
       position="2003.9999,267.13722"
       orientation="1,0"
       id="guide4645"
       inkscape:locked="false" />
    <sodipodi:guide
       position="479.99999,800.73948"
       orientation="1,0"
       id="guide4647"
       inkscape:locked="false"
       inkscape:label=""
       inkscape:color="rgb(0,0,255)" />
  </sodipodi:namedview>
  <metadata
     id="metadata5">
    <rdf:RDF>
      <cc:Work
         rdf:about="">
        <dc:format>image/svg+xml</dc:format>
        <dc:type
           rdf:resource="http://purl.org/dc/dcmitype/StillImage" />
        <dc:title />
      </cc:Work>
    </rdf:RDF>
  </metadata>
  <g
     inkscape:label="panel lines colored"
     id="g4718"
     inkscape:groupmode="layer"
     style="display:inline"
     sodipodi:insensitive="true">
    <g
       id="g4734"
       style="stroke:#204a87">
      <path
         inkscape:connector-curvature="0"
         id="path4674"
         d="M 497.00003,-0.81575632 V 1016.5391"
         style="fill:none;fill-rule:evenodd;stroke:#204a87;stroke-width:2.64499998;stroke-linecap:butt;stroke-linejoin:miter;stroke-miterlimit:4;stroke-dasharray:none;stroke-opacity:1" />
      <path
         inkscape:connector-curvature="0"
         id="path4686"
         d="M 919.00003,-0.81575632 V 1016.5391"
         style="fill:none;fill-rule:evenodd;stroke:#204a87;stroke-width:2.64499998;stroke-linecap:butt;stroke-linejoin:miter;stroke-miterlimit:4;stroke-dasharray:none;stroke-opacity:1" />
      <path
         style="fill:none;fill-rule:evenodd;stroke:#204a87;stroke-width:2.64499998;stroke-linecap:butt;stroke-linejoin:miter;stroke-miterlimit:4;stroke-dasharray:none;stroke-opacity:1"
         d="M 1401,-0.81575632 V 1016.5391"
         id="path4692"
         inkscape:connector-curvature="0" />
      <path
         style="fill:none;fill-rule:evenodd;stroke:#204a87;stroke-width:2.64499998;stroke-linecap:butt;stroke-linejoin:miter;stroke-miterlimit:4;stroke-dasharray:none;stroke-opacity:1"
         d="M 1823,-0.81575632 V 1016.5391"
         id="path4696"
         inkscape:connector-curvature="0" />
    </g>
    <g
       id="g4728"
       style="stroke:#cc0000">
      <path
         style="fill:none;fill-rule:evenodd;stroke:#cc0000;stroke-width:2.64499998;stroke-linecap:butt;stroke-linejoin:miter;stroke-miterlimit:4;stroke-dasharray:none;stroke-opacity:1"
         d="M 557.00003,674.99972 V 1016.5391"
         id="path4684"
         inkscape:connector-curvature="0"
         sodipodi:nodetypes="cc" />
      <path
         style="fill:none;fill-rule:evenodd;stroke:#cc0000;stroke-width:2.64499998;stroke-linecap:butt;stroke-linejoin:miter;stroke-miterlimit:4;stroke-dasharray:none;stroke-opacity:1"
         d="M 979.00003,404.99972 V 1016.5391"
         id="path4688"
         inkscape:connector-curvature="0"
         sodipodi:nodetypes="cc" />
      <path
         inkscape:connector-curvature="0"
         id="path4690"
         d="M 1341,-0.81575632 V 344.99972"
         style="fill:none;fill-rule:evenodd;stroke:#cc0000;stroke-width:2.64499998;stroke-linecap:butt;stroke-linejoin:miter;stroke-miterlimit:4;stroke-dasharray:none;stroke-opacity:1"
         sodipodi:nodetypes="cc" />
      <path
         inkscape:connector-curvature="0"
         id="path4694"
         d="M 1763,674.99972 V 1016.5391"
         style="fill:none;fill-rule:evenodd;stroke:#cc0000;stroke-width:2.64499998;stroke-linecap:butt;stroke-linejoin:miter;stroke-miterlimit:4;stroke-dasharray:none;stroke-opacity:1"
         sodipodi:nodetypes="cc" />
      <path
         inkscape:connector-curvature="0"
         id="path4698"
         d="M 557.00003,-0.81575632 V 614.99972"
         style="fill:none;fill-rule:evenodd;stroke:#cc0000;stroke-width:2.64499998;stroke-linecap:butt;stroke-linejoin:miter;stroke-miterlimit:4;stroke-dasharray:none;stroke-opacity:1"
         sodipodi:nodetypes="cc" />
      <path
         inkscape:connector-curvature="0"
         id="path4704"
         d="M 979.00003,-0.81575632 V 344.99972"
         style="fill:none;fill-rule:evenodd;stroke:#cc0000;stroke-width:2.64499998;stroke-linecap:butt;stroke-linejoin:miter;stroke-miterlimit:4;stroke-dasharray:none;stroke-opacity:1"
         sodipodi:nodetypes="cc" />
      <path
         style="fill:none;fill-rule:evenodd;stroke:#cc0000;stroke-width:2.64499998;stroke-linecap:butt;stroke-linejoin:miter;stroke-miterlimit:4;stroke-dasharray:none;stroke-opacity:1"
         d="M 1341,404.99972 V 1016.5391"
         id="path4706"
         inkscape:connector-curvature="0"
         sodipodi:nodetypes="cc" />
      <path
         style="fill:none;fill-rule:evenodd;stroke:#cc0000;stroke-width:2.64499998;stroke-linecap:butt;stroke-linejoin:miter;stroke-miterlimit:4;stroke-dasharray:none;stroke-opacity:1"
         d="M 1763,-0.81575632 V 614.99972"
         id="path4712"
         inkscape:connector-curvature="0"
         sodipodi:nodetypes="cc" />
    </g>
    <g
       id="g4746"
       style="stroke:#4e9a06">
      <path
         style="fill:none;fill-rule:evenodd;stroke:#4e9a06;stroke-width:2.64499998;stroke-linecap:butt;stroke-linejoin:miter;stroke-miterlimit:4;stroke-dasharray:none;stroke-opacity:1"
         d="m 497.00003,674.99972 h 422"
         id="path4676"
         inkscape:connector-curvature="0"
         sodipodi:nodetypes="cc" />
      <path
         sodipodi:nodetypes="cc"
         inkscape:connector-curvature="0"
         id="path4678"
         d="m 497.00003,614.99972 h 422"
         style="fill:none;fill-rule:evenodd;stroke:#4e9a06;stroke-width:2.64499998;stroke-linecap:butt;stroke-linejoin:miter;stroke-miterlimit:4;stroke-dasharray:none;stroke-opacity:1" />
      <path
         style="fill:none;fill-rule:evenodd;stroke:#4e9a06;stroke-width:2.64499998;stroke-linecap:butt;stroke-linejoin:miter;stroke-miterlimit:4;stroke-dasharray:none;stroke-opacity:1"
         d="M 0,404.99972 H 497.00003"
         id="path4680"
         inkscape:connector-curvature="0"
         sodipodi:nodetypes="cc" />
      <path
         sodipodi:nodetypes="cc"
         inkscape:connector-curvature="0"
         id="path4682"
         d="M 0,344.99972 H 497.00003"
         style="fill:none;fill-rule:evenodd;stroke:#4e9a06;stroke-width:2.64499998;stroke-linecap:butt;stroke-linejoin:miter;stroke-miterlimit:4;stroke-dasharray:none;stroke-opacity:1" />
      <path
         sodipodi:nodetypes="cc"
         inkscape:connector-curvature="0"
         id="path4700"
         d="M 919.00003,404.99972 H 1401"
         style="fill:none;fill-rule:evenodd;stroke:#4e9a06;stroke-width:2.64499998;stroke-linecap:butt;stroke-linejoin:miter;stroke-miterlimit:4;stroke-dasharray:none;stroke-opacity:1" />
      <path
         style="fill:none;fill-rule:evenodd;stroke:#4e9a06;stroke-width:2.64499998;stroke-linecap:butt;stroke-linejoin:miter;stroke-miterlimit:4;stroke-dasharray:none;stroke-opacity:1"
         d="M 919.00003,344.99972 H 1401"
         id="path4702"
         inkscape:connector-curvature="0"
         sodipodi:nodetypes="cc" />
      <path
         sodipodi:nodetypes="cc"
         inkscape:connector-curvature="0"
         id="path4708"
         d="m 1401,674.99972 h 422"
         style="fill:none;fill-rule:evenodd;stroke:#4e9a06;stroke-width:2.64499998;stroke-linecap:butt;stroke-linejoin:miter;stroke-miterlimit:4;stroke-dasharray:none;stroke-opacity:1" />
      <path
         style="fill:none;fill-rule:evenodd;stroke:#4e9a06;stroke-width:2.64499998;stroke-linecap:butt;stroke-linejoin:miter;stroke-miterlimit:4;stroke-dasharray:none;stroke-opacity:1"
         d="m 1401,614.99972 h 422"
         id="path4710"
         inkscape:connector-curvature="0"
         sodipodi:nodetypes="cc" />
      <path
         sodipodi:nodetypes="cc"
         inkscape:connector-curvature="0"
         id="path4714"
         d="m 1823,404.99972 h 495.6776"
         style="fill:none;fill-rule:evenodd;stroke:#4e9a06;stroke-width:2.64499998;stroke-linecap:butt;stroke-linejoin:miter;stroke-miterlimit:4;stroke-dasharray:none;stroke-opacity:1" />
      <path
         style="fill:none;fill-rule:evenodd;stroke:#4e9a06;stroke-width:2.64499998;stroke-linecap:butt;stroke-linejoin:miter;stroke-miterlimit:4;stroke-dasharray:none;stroke-opacity:1"
         d="m 1823,344.99972 h 495.6776"
         id="path4716"
         inkscape:connector-curvature="0"
         sodipodi:nodetypes="cc" />
    </g>
  </g>
  <g
     inkscape:groupmode="layer"
     id="layer2"
     inkscape:label="arrows and note"
     sodipodi:insensitive="true">
    <g
       transform="matrix(1,0,0,-1,-46.320985,1286.378)"
       id="g4621">
      <path
         style="fill:none;fill-rule:evenodd;stroke:#000000;stroke-width:2;stroke-linecap:round;stroke-linejoin:bevel;stroke-miterlimit:4;stroke-dasharray:none;stroke-opacity:1"
         d="m 1206.321,868.45816 v -27.92965 l -8.0405,13.92645"
         id="path4614"
         inkscape:connector-curvature="0" />
      <path
         inkscape:connector-curvature="0"
         id="path4617"
         d="m 1206.321,868.45816 v -27.92965 l 8.0405,13.92645"
         style="fill:none;fill-rule:evenodd;stroke:#000000;stroke-width:2;stroke-linecap:round;stroke-linejoin:bevel;stroke-miterlimit:4;stroke-dasharray:none;stroke-opacity:1"
         sodipodi:nodetypes="ccc" />
      <path
         style="fill:none;fill-rule:evenodd;stroke:#000000;stroke-width:2;stroke-linecap:round;stroke-linejoin:miter;stroke-miterlimit:4;stroke-dasharray:none;stroke-opacity:1"
         d="m 1206.321,865.71781 v -25.1893"
         id="path4619"
         inkscape:connector-curvature="0"
         sodipodi:nodetypes="cc" />
    </g>
    <g
       id="g4629"
       transform="matrix(0,1,1,0,461.9585,-701.32128)">
      <path
         inkscape:connector-curvature="0"
         id="path4623"
         d="m 1206.321,868.45816 v -27.92965 l -8.0405,13.92645"
         style="fill:none;fill-rule:evenodd;stroke:#000000;stroke-width:2;stroke-linecap:round;stroke-linejoin:bevel;stroke-miterlimit:4;stroke-dasharray:none;stroke-opacity:1" />
      <path
         sodipodi:nodetypes="ccc"
         style="fill:none;fill-rule:evenodd;stroke:#000000;stroke-width:2;stroke-linecap:round;stroke-linejoin:bevel;stroke-miterlimit:4;stroke-dasharray:none;stroke-opacity:1"
         d="m 1206.321,868.45816 v -27.92965 l 8.0405,13.92645"
         id="path4625"
         inkscape:connector-curvature="0" />
      <path
         sodipodi:nodetypes="cc"
         inkscape:connector-curvature="0"
         id="path4627"
         d="m 1206.321,865.71781 v -25.1893"
         style="fill:none;fill-rule:evenodd;stroke:#000000;stroke-width:2;stroke-linecap:round;stroke-linejoin:miter;stroke-miterlimit:4;stroke-dasharray:none;stroke-opacity:1" />
    </g>
    <g
       transform="matrix(0,1,1,0,461.9585,-961.32128)"
       id="g4637">
      <path
         style="fill:none;fill-rule:evenodd;stroke:#000000;stroke-width:2;stroke-linecap:round;stroke-linejoin:bevel;stroke-miterlimit:4;stroke-dasharray:none;stroke-opacity:1"
         d="m 1206.321,868.45816 v -27.92965 l -8.0405,13.92645"
         id="path4631"
         inkscape:connector-curvature="0" />
      <path
         inkscape:connector-curvature="0"
         id="path4633"
         d="m 1206.321,868.45816 v -27.92965 l 8.0405,13.92645"
         style="fill:none;fill-rule:evenodd;stroke:#000000;stroke-width:2;stroke-linecap:round;stroke-linejoin:bevel;stroke-miterlimit:4;stroke-dasharray:none;stroke-opacity:1"
         sodipodi:nodetypes="ccc" />
      <path
         style="fill:none;fill-rule:evenodd;stroke:#000000;stroke-width:2;stroke-linecap:round;stroke-linejoin:miter;stroke-miterlimit:4;stroke-dasharray:none;stroke-opacity:1"
         d="m 1206.321,865.71781 v -25.1893"
         id="path4635"
         inkscape:connector-curvature="0"
         sodipodi:nodetypes="cc" />
    </g>
    <g
       id="g4646"
       transform="rotate(90,1620.6813,659.3601)">
      <path
         inkscape:connector-curvature="0"
         id="path4639"
         d="m 1206.321,868.45816 v -27.92965 l -8.0405,13.92645"
         style="fill:none;fill-rule:evenodd;stroke:#000000;stroke-width:2;stroke-linecap:round;stroke-linejoin:bevel;stroke-miterlimit:4;stroke-dasharray:none;stroke-opacity:1" />
      <path
         sodipodi:nodetypes="ccc"
         style="fill:none;fill-rule:evenodd;stroke:#000000;stroke-width:2;stroke-linecap:round;stroke-linejoin:bevel;stroke-miterlimit:4;stroke-dasharray:none;stroke-opacity:1"
         d="m 1206.321,868.45816 v -27.92965 l 8.0405,13.92645"
         id="path4642"
         inkscape:connector-curvature="0" />
      <path
         sodipodi:nodetypes="cc"
         inkscape:connector-curvature="0"
         id="path4644"
         d="m 1206.321,865.71781 v -25.1893"
         style="fill:none;fill-rule:evenodd;stroke:#000000;stroke-width:2;stroke-linecap:round;stroke-linejoin:miter;stroke-miterlimit:4;stroke-dasharray:none;stroke-opacity:1" />
    </g>
    <g
       transform="rotate(90,1490.6813,789.36013)"
       id="g4654">
      <path
         style="fill:none;fill-rule:evenodd;stroke:#000000;stroke-width:2;stroke-linecap:round;stroke-linejoin:bevel;stroke-miterlimit:4;stroke-dasharray:none;stroke-opacity:1"
         d="m 1206.321,868.45816 v -27.92965 l -8.0405,13.92645"
         id="path4648"
         inkscape:connector-curvature="0" />
      <path
         inkscape:connector-curvature="0"
         id="path4650"
         d="m 1206.321,868.45816 v -27.92965 l 8.0405,13.92645"
         style="fill:none;fill-rule:evenodd;stroke:#000000;stroke-width:2;stroke-linecap:round;stroke-linejoin:bevel;stroke-miterlimit:4;stroke-dasharray:none;stroke-opacity:1"
         sodipodi:nodetypes="ccc" />
      <path
         style="fill:none;fill-rule:evenodd;stroke:#000000;stroke-width:2;stroke-linecap:round;stroke-linejoin:miter;stroke-miterlimit:4;stroke-dasharray:none;stroke-opacity:1"
         d="m 1206.321,865.71781 v -25.1893"
         id="path4652"
         inkscape:connector-curvature="0"
         sodipodi:nodetypes="cc" />
    </g>
    <g
       aria-label="fold direction
of the 2nd sewing"
       style="font-style:italic;font-variant:normal;font-weight:normal;font-stretch:normal;font-size:28.22222137px;line-height:40px;font-family:Alegreya;-inkscape-font-specification:'Alegreya, Italic';font-variant-ligatures:normal;font-variant-caps:normal;font-variant-numeric:normal;font-feature-settings:normal;text-align:center;letter-spacing:0px;word-spacing:0px;writing-mode:lr-tb;text-anchor:middle;fill:#000000;fill-opacity:1;stroke:none;stroke-width:0.26458332px;stroke-linecap:butt;stroke-linejoin:miter;stroke-opacity:1"
       id="text4658">
      <path
         d="m 1092.9522,481.94778 1.9473,0.0847 0.1976,0.14112 -0.7902,9.59555 c -0.1129,1.524 -0.1129,3.048 -0.3387,4.88244 -0.1693,1.27 -1.0442,2.22956 -2.032,2.22956 -1.2135,0 -2.0038,-0.93133 -1.9755,-2.34244 h -0.3952 c -0.3104,0.53622 -0.7902,1.72155 -0.9595,2.37066 0.254,0.73378 1.3547,1.29822 2.54,1.29822 2.3989,0 4.0358,-1.72155 4.3744,-4.71311 l 1.4676,-13.462 0.2822,-0.16933 3.8382,0.0282 0.2258,-1.12889 -0.1129,-0.0847 -4.0922,0.0282 0.4233,-3.38667 c 0.254,-2.14489 1.1289,-3.21733 2.6247,-3.21733 0.762,0 1.7498,0.31044 2.794,0.93133 l 0.5362,-0.0847 0.8749,-1.778 -0.1129,-0.31045 c -0.7055,-0.254 -1.8909,-0.42333 -2.8504,-0.42333 -3.0198,0 -5.5316,2.51178 -5.9549,5.95489 l -0.254,2.25778 -2.2296,0.33866 -0.1129,0.81845 z"
         id="path4705"
         inkscape:connector-curvature="0" />
      <path
         d="m 1104.4334,492.16422 c -1.3265,0 -2.2578,-1.83444 -2.2578,-4.48733 0,-3.27378 1.3547,-5.70089 3.1891,-5.70089 1.4111,0 2.286,1.55222 2.286,4.064 0,3.52778 -1.3547,6.12422 -3.2173,6.12422 z m -1.1289,1.55222 c 3.5278,0 6.4629,-4.26155 6.4629,-9.22866 0,-2.65289 -1.2418,-4.20511 -3.2174,-4.20511 -3.4149,0 -6.4064,4.17689 -6.4064,8.80533 0,2.82222 1.2982,4.62844 3.1609,4.62844 z"
         id="path4707"
         inkscape:connector-curvature="0" />
      <path
         d="m 1113.9795,491.57155 c 0.9596,-7.28133 3.4714,-18.54199 3.4714,-18.54199 l -0.254,-0.33867 c 0,0 -2.8223,0.16933 -4.5438,0.16933 l -0.1693,1.07245 h 1.1571 c 0.8466,0 1.1853,0.33866 1.1853,1.12889 0,1.12888 -2.6529,17.35666 -2.6529,17.83644 0,0.53622 0.3105,0.81844 0.8749,0.81844 0.6491,0 2.0038,-1.04422 3.9511,-2.99155 l -0.3669,-0.67734 -0.3386,-0.0282 c -1.6087,1.41111 -1.9474,1.66511 -2.2296,1.66511 z"
         id="path4709"
         inkscape:connector-curvature="0" />
      <path
         d="m 1127.0464,491.57155 c 0.8467,-6.43466 3.4431,-18.54199 3.4431,-18.54199 l -0.254,-0.33867 c 0,0 -2.8222,0.16933 -4.5437,0.16933 l -0.1694,1.07245 h 1.1571 c 0.9314,0 1.27,0.36689 1.1571,1.24177 l -0.7337,5.55978 -2.032,-0.33866 c -3.1609,0 -6.4629,4.85422 -6.4629,9.48266 0,2.42711 0.8184,3.83822 2.2578,3.83822 1.778,-1.24177 3.4148,-3.33022 5.2493,-6.74511 l 0.1975,0.0564 c 0,0 -1.2135,5.30577 -1.2135,5.87022 0,0.53622 0.3387,0.81844 1.016,0.81844 0.5927,0 1.6087,-0.79022 3.9511,-2.99155 l -0.3669,-0.67734 -0.3387,-0.0282 c -1.8344,1.55222 -1.9755,1.66511 -2.2295,1.66511 z m -5.6444,-0.14111 c -0.4516,0 -0.8185,-1.29822 -0.8185,-2.93511 0,-3.35844 1.778,-6.57577 3.6125,-6.57577 0.7338,0 1.8626,0.36688 2.7658,0.90311 -2.0603,4.79777 -4.5156,8.60777 -5.5598,8.60777 z"
         id="path4711"
         inkscape:connector-curvature="0" />
      <path
         d="m 1145.5121,491.57155 c 0.8467,-6.43466 3.4431,-18.54199 3.4431,-18.54199 l -0.254,-0.33867 c 0,0 -2.8222,0.16933 -4.5437,0.16933 l -0.1694,1.07245 h 1.1571 c 0.9314,0 1.27,0.36689 1.1572,1.24177 l -0.7338,5.55978 -2.032,-0.33866 c -3.1609,0 -6.4629,4.85422 -6.4629,9.48266 0,2.42711 0.8184,3.83822 2.2578,3.83822 1.778,-1.24177 3.4149,-3.33022 5.2493,-6.74511 l 0.1976,0.0564 c 0,0 -1.2136,5.30577 -1.2136,5.87022 0,0.53622 0.3387,0.81844 1.016,0.81844 0.5927,0 1.6087,-0.79022 3.9511,-2.99155 l -0.3669,-0.67734 -0.3386,-0.0282 c -1.8345,1.55222 -1.9756,1.66511 -2.2296,1.66511 z m -5.6444,-0.14111 c -0.4516,0 -0.8185,-1.29822 -0.8185,-2.93511 0,-3.35844 1.778,-6.57577 3.6125,-6.57577 0.7338,0 1.8627,0.36688 2.7658,0.90311 -2.0603,4.79777 -4.5156,8.60777 -5.5598,8.60777 z"
         id="path4713"
         inkscape:connector-curvature="0" />
      <path
         d="m 1154.2579,476.67022 c 1.016,0 1.778,-0.87489 1.778,-1.86266 0,-0.64912 -0.3951,-1.24178 -1.1571,-1.24178 -1.0442,0 -1.8062,0.90311 -1.8062,1.86266 0,0.62089 0.3951,1.24178 1.1853,1.24178 z m -1.3546,14.90133 c 0.7337,-5.24933 2.3424,-10.61155 2.3424,-10.61155 l -0.254,-0.33867 c 0,0 -2.8504,0.16934 -4.572,0.16934 l -0.1975,1.07244 h 1.1571 c 0.8466,0 1.1853,0.33867 1.1853,1.18533 0,0.98778 -1.4393,9.68023 -1.4393,9.68023 0,0.64911 0.2257,0.98777 0.8466,0.98777 0.6491,0 2.0038,-1.04422 3.9511,-2.99155 l -0.3668,-0.67734 -0.3387,-0.0282 c -1.6087,1.41111 -1.9473,1.66511 -2.2296,1.66511 z"
         id="path4715"
         inkscape:connector-curvature="0" />
      <path
         d="m 1158.482,493.37778 0.1976,0.254 c 0.4515,0 1.7215,-0.47978 1.7497,-0.64911 l 0.4234,-3.18912 c 1.5522,-3.97933 3.5842,-6.51933 5.1929,-6.51933 0.4797,0 0.7902,0.14111 0.7902,0.14111 l 0.2258,-0.0847 c 0.085,-0.36689 0.1411,-0.67734 0.1411,-0.98778 0,-0.79022 -0.254,-1.46756 -0.8185,-1.94733 -1.2418,0 -3.556,2.90688 -5.1082,6.43466 l -0.1129,-0.0282 c 0.5362,-2.794 1.524,-5.842 1.524,-5.842 l -0.254,-0.33867 c 0,0 -2.8504,0.16934 -4.572,0.16934 l -0.1975,1.07244 h 1.1571 c 0.9031,0 1.2135,0.33867 1.2135,1.24178 0,1.12889 -1.5522,10.27289 -1.5522,10.27289 z"
         id="path4717"
         inkscape:connector-curvature="0" />
      <path
         d="m 1176.0279,482.484 c 0,-1.41111 -0.8185,-2.20133 -2.2296,-2.20133 -3.1609,0 -6.4064,4.43089 -6.4064,8.77711 0,2.87866 1.2417,4.65666 3.2737,4.65666 1.6087,0 3.4714,-1.41111 4.5438,-3.41489 l -0.4233,-0.67733 -0.3951,-0.0282 c -0.762,1.46755 -1.9756,2.42711 -3.1045,2.42711 -1.3264,0 -2.1166,-1.60867 -1.9755,-4.00755 4.826,-1.60867 6.7169,-3.16089 6.7169,-5.53156 z m -3.1327,-0.56444 c 0.7338,0 1.1289,0.45155 1.1289,1.29822 0,1.55222 -1.3265,2.59644 -4.6002,3.61244 0.4233,-2.68111 2.0037,-4.91066 3.4713,-4.91066 z"
         id="path4719"
         inkscape:connector-curvature="0" />
      <path
         d="m 1183.0375,481.94778 c 0.762,0 1.4676,0.39511 2.0603,1.21355 l 0.3951,-0.0847 0.9595,-1.89089 -0.1411,-0.31045 c -0.5362,-0.36689 -1.4393,-0.59266 -2.3989,-0.59266 -3.2173,0 -6.3782,4.34622 -6.3782,8.77711 0,2.87866 1.2418,4.65666 3.2738,4.65666 1.6087,0 3.4713,-1.41111 4.5438,-3.41489 l -0.4234,-0.67733 -0.3951,-0.0282 c -0.6773,1.43933 -1.9473,2.45533 -3.0762,2.45533 -1.1853,0 -1.9473,-1.49578 -1.9473,-3.83822 0,-3.16089 1.7497,-6.26533 3.5277,-6.26533 z"
         id="path4721"
         inkscape:connector-curvature="0" />
      <path
         d="m 1193.1058,489.73711 c -1.524,1.43933 -2.286,1.94733 -2.794,1.94733 -0.5362,0 -0.7338,-0.33866 -0.6491,-0.98777 l 1.7216,-8.66423 0.3104,-0.16933 3.3302,0.0282 0.2258,-1.12889 -0.1129,-0.0847 -3.4431,0.0282 c 0.508,-2.20133 1.1289,-4.12044 1.1289,-4.12044 l -0.1693,-0.33867 -2.54,0.98778 c 0,0 -0.2258,1.778 -0.4516,3.38666 l -2.2578,0.36689 -0.1129,0.81845 0.085,0.14111 1.9473,0.0847 0.1411,0.11289 -1.5522,9.68022 c -0.1411,1.15712 0.508,1.89089 1.6369,1.89089 0.9031,0 2.6529,-1.49577 4.2616,-3.27377 l -0.3387,-0.67734 z"
         id="path4723"
         inkscape:connector-curvature="0" />
      <path
         d="m 1199.3473,476.67022 c 1.016,0 1.778,-0.87489 1.778,-1.86266 0,-0.64912 -0.3951,-1.24178 -1.1571,-1.24178 -1.0442,0 -1.8062,0.90311 -1.8062,1.86266 0,0.62089 0.3951,1.24178 1.1853,1.24178 z m -1.3546,14.90133 c 0.7337,-5.24933 2.3424,-10.61155 2.3424,-10.61155 l -0.254,-0.33867 c 0,0 -2.8504,0.16934 -4.572,0.16934 l -0.1975,1.07244 h 1.1571 c 0.8466,0 1.1853,0.33867 1.1853,1.18533 0,0.98778 -1.4393,9.68023 -1.4393,9.68023 0,0.64911 0.2257,0.98777 0.8466,0.98777 0.6491,0 2.0038,-1.04422 3.9511,-2.99155 l -0.3668,-0.67734 -0.3387,-0.0282 c -1.6087,1.41111 -1.9473,1.66511 -2.2296,1.66511 z"
         id="path4725"
         inkscape:connector-curvature="0" />
      <path
         d="m 1207.0145,492.16422 c -1.3264,0 -2.2578,-1.83444 -2.2578,-4.48733 0,-3.27378 1.3547,-5.70089 3.1892,-5.70089 1.4111,0 2.286,1.55222 2.286,4.064 0,3.52778 -1.3547,6.12422 -3.2174,6.12422 z m -1.1289,1.55222 c 3.5278,0 6.4629,-4.26155 6.4629,-9.22866 0,-2.65289 -1.2418,-4.20511 -3.2173,-4.20511 -3.4149,0 -6.4065,4.17689 -6.4065,8.80533 0,2.82222 1.2983,4.62844 3.1609,4.62844 z"
         id="path4727"
         inkscape:connector-curvature="0" />
      <path
         d="m 1223.1647,491.57155 c 0.508,-2.37066 2.3707,-6.63222 2.3707,-8.57955 0,-1.524 -0.9314,-2.70933 -2.1449,-2.70933 -1.7498,1.016 -3.7818,3.66889 -5.7291,7.47889 l -0.1412,-0.0847 c 0.5363,-3.302 1.7216,-6.71689 1.7216,-6.71689 l -0.254,-0.33867 c 0,0 -2.8504,0.16934 -4.572,0.16934 l -0.1976,1.07244 h 1.1572 c 0.8748,0 1.2135,0.33867 1.2135,1.12889 0,0.90311 -1.5522,10.38578 -1.5522,10.38578 l 0.1975,0.254 c 0.4516,0 1.7216,-0.47978 1.7498,-0.64911 l 0.3105,-2.31423 c 1.9473,-4.62844 4.064,-7.76111 5.2493,-7.76111 0.5644,0 0.9596,0.47978 0.9596,1.15711 0,1.94734 -2.1449,7.112 -2.1449,8.83356 0,0.53622 0.3104,0.81844 0.8749,0.81844 0.6491,0 1.9755,-1.016 3.9511,-2.99155 l -0.3669,-0.67734 -0.3387,-0.0282 c -1.6933,1.46756 -1.9473,1.66511 -2.2295,1.66511 z"
         id="path4729"
         inkscape:connector-curvature="0" />
      <path
         d="m 1075.3843,532.16422 c -1.3264,0 -2.2578,-1.83444 -2.2578,-4.48733 0,-3.27378 1.3547,-5.70089 3.1892,-5.70089 1.4111,0 2.286,1.55222 2.286,4.064 0,3.52778 -1.3547,6.12422 -3.2174,6.12422 z m -1.1289,1.55222 c 3.5278,0 6.4629,-4.26155 6.4629,-9.22866 0,-2.65289 -1.2418,-4.20511 -3.2173,-4.20511 -3.4149,0 -6.4065,4.17689 -6.4065,8.80533 0,2.82222 1.2983,4.62844 3.1609,4.62844 z"
         id="path4731"
         inkscape:connector-curvature="0" />
      <path
         d="m 1082.6445,521.94778 1.9473,0.0847 0.1976,0.14112 -0.7902,9.59555 c -0.1129,1.524 -0.1129,3.048 -0.3387,4.88244 -0.1693,1.27 -1.0442,2.22956 -2.032,2.22956 -1.2136,0 -2.0038,-0.93133 -1.9756,-2.34244 h -0.3951 c -0.3104,0.53622 -0.7902,1.72155 -0.9595,2.37066 0.254,0.73378 1.3546,1.29822 2.54,1.29822 2.3989,0 4.0357,-1.72155 4.3744,-4.71311 l 1.4676,-13.462 0.2822,-0.16933 3.8382,0.0282 0.2258,-1.12889 -0.1129,-0.0847 -4.0922,0.0282 0.4233,-3.38667 c 0.254,-2.14489 1.1289,-3.21733 2.6247,-3.21733 0.762,0 1.7498,0.31044 2.794,0.93133 l 0.5362,-0.0847 0.8749,-1.778 -0.1129,-0.31045 c -0.7056,-0.254 -1.8909,-0.42333 -2.8504,-0.42333 -3.0198,0 -5.5316,2.51178 -5.9549,5.95489 l -0.254,2.25778 -2.2296,0.33866 -0.1129,0.81845 z"
         id="path4733"
         inkscape:connector-curvature="0" />
      <path
         d="m 1101.108,529.73711 c -1.524,1.43933 -2.286,1.94733 -2.794,1.94733 -0.5362,0 -0.7338,-0.33866 -0.6491,-0.98777 l 1.7215,-8.66423 0.3105,-0.16933 3.3302,0.0282 0.2258,-1.12889 -0.1129,-0.0847 -3.4431,0.0282 c 0.508,-2.20133 1.1289,-4.12044 1.1289,-4.12044 l -0.1694,-0.33867 -2.54,0.98778 c 0,0 -0.2257,1.778 -0.4515,3.38666 l -2.2578,0.36689 -0.1129,0.81845 0.085,0.14111 1.9473,0.0847 0.1411,0.11289 -1.5522,9.68022 c -0.1411,1.15712 0.508,1.89089 1.6369,1.89089 0.9031,0 2.6529,-1.49577 4.2615,-3.27377 l -0.3386,-0.67734 z"
         id="path4735"
         inkscape:connector-curvature="0" />
      <path
         d="m 1111.9215,531.57155 c 0.508,-2.37066 2.4553,-6.60399 2.4553,-8.55133 0,-1.49578 -1.016,-2.73755 -2.2295,-2.73755 -1.7498,1.016 -3.7818,3.66889 -5.7291,7.47888 l -0.1411,-0.0847 c 1.0442,-7.05556 2.8504,-14.64733 2.8504,-14.64733 l -0.254,-0.33867 c 0,0 -2.8222,0.16933 -4.5438,0.16933 l -0.1693,1.07245 h 1.1571 c 0.8467,0 1.1853,0.33866 1.1853,1.10066 0,1.12889 -2.7093,18.34445 -2.7093,18.34445 l 0.1976,0.254 c 0.4515,0 1.7215,-0.47978 1.7497,-0.64911 l 0.3105,-2.37067 c 1.9473,-4.572 4.064,-7.70467 5.2493,-7.70467 0.5645,0 0.9596,0.47978 0.9596,1.15711 0,1.94734 -2.1449,7.112 -2.1449,8.83356 0,0.53622 0.3104,0.81844 0.8749,0.81844 0.6209,0 1.8626,-0.93133 3.9511,-2.99155 l -0.3669,-0.67734 -0.3387,-0.0282 c -1.6933,1.46756 -1.9473,1.66511 -2.2295,1.66511 z"
         id="path4737"
         inkscape:connector-curvature="0" />
      <path
         d="m 1125.757,522.484 c 0,-1.41111 -0.8184,-2.20133 -2.2295,-2.20133 -3.1609,0 -6.4065,4.43089 -6.4065,8.77711 0,2.87866 1.2418,4.65666 3.2738,4.65666 1.6087,0 3.4713,-1.41111 4.5438,-3.41489 l -0.4234,-0.67733 -0.3951,-0.0282 c -0.762,1.46755 -1.9755,2.42711 -3.1044,2.42711 -1.3265,0 -2.1167,-1.60867 -1.9756,-4.00756 4.826,-1.60866 6.7169,-3.16088 6.7169,-5.53155 z m -3.1327,-0.56444 c 0.7338,0 1.1289,0.45155 1.1289,1.29822 0,1.55222 -1.3264,2.59644 -4.6002,3.61244 0.4233,-2.68111 2.0038,-4.91066 3.4713,-4.91066 z"
         id="path4739"
         inkscape:connector-curvature="0" />
      <path
         d="m 1131.8751,533.71644 1.524,-0.33866 c 2.3424,0 8.7206,0.19755 8.7206,0.19755 l 0.3387,-0.19755 c 0.4798,-2.06023 1.3264,-4.43089 1.3264,-4.43089 l -1.1571,0.14111 c -0.7902,2.14489 -1.3546,2.56822 -3.3302,2.56822 h -4.0358 l -0.085,-0.19755 c 5.5597,-5.72911 6.858,-7.50711 6.858,-9.34156 0,-1.83444 -1.3265,-2.99155 -3.3585,-2.99155 -1.7498,0 -3.8664,1.32644 -5.0235,3.13266 l 0.1693,1.27 h 0.254 c 0.9878,-1.524 2.3989,-2.51178 3.6124,-2.51178 1.1289,0 1.778,0.64912 1.778,1.72156 0,1.66511 -1.7497,4.28978 -5.3622,7.98689 l -2.4271,2.48355 z"
         id="path4741"
         inkscape:connector-curvature="0" />
      <path
         d="m 1154.4833,531.57155 c 0.508,-2.37066 2.3706,-6.63222 2.3706,-8.57955 0,-1.524 -0.9313,-2.70933 -2.1449,-2.70933 -1.7497,1.016 -3.7817,3.66889 -5.7291,7.47888 l -0.1411,-0.0847 c 0.5362,-3.302 1.7216,-6.71689 1.7216,-6.71689 l -0.254,-0.33867 c 0,0 -2.8505,0.16934 -4.572,0.16934 l -0.1976,1.07244 h 1.1571 c 0.8749,0 1.2136,0.33867 1.2136,1.12889 0,0.90311 -1.5522,10.38578 -1.5522,10.38578 l 0.1975,0.254 c 0.4516,0 1.7216,-0.47978 1.7498,-0.64911 l 0.3104,-2.31423 c 1.9474,-4.62844 4.064,-7.76111 5.2494,-7.76111 0.5644,0 0.9595,0.47978 0.9595,1.15711 0,1.94734 -2.1449,7.112 -2.1449,8.83356 0,0.53622 0.3105,0.81844 0.8749,0.81844 0.6491,0 1.9756,-1.016 3.9511,-2.99155 l -0.3668,-0.67734 -0.3387,-0.0282 c -1.6933,1.46756 -1.9473,1.66511 -2.2296,1.66511 z"
         id="path4743"
         inkscape:connector-curvature="0" />
      <path
         d="m 1168.0568,531.57155 c 0.8467,-6.43466 3.4431,-18.54199 3.4431,-18.54199 l -0.254,-0.33867 c 0,0 -2.8222,0.16933 -4.5437,0.16933 l -0.1694,1.07245 h 1.1571 c 0.9314,0 1.27,0.36689 1.1572,1.24177 l -0.7338,5.55978 -2.032,-0.33866 c -3.1609,0 -6.4629,4.85422 -6.4629,9.48266 0,2.42711 0.8184,3.83822 2.2578,3.83822 1.778,-1.24177 3.4149,-3.33022 5.2493,-6.74511 l 0.1976,0.0565 c 0,0 -1.2136,5.30577 -1.2136,5.87022 0,0.53622 0.3387,0.81844 1.016,0.81844 0.5927,0 1.6087,-0.79022 3.9511,-2.99155 l -0.3669,-0.67734 -0.3386,-0.0282 c -1.8345,1.55222 -1.9756,1.66511 -2.2296,1.66511 z m -5.6444,-0.14111 c -0.4516,0 -0.8185,-1.29822 -0.8185,-2.93511 0,-3.35844 1.778,-6.57577 3.6125,-6.57577 0.7338,0 1.8627,0.36688 2.7658,0.90311 -2.0603,4.79777 -4.5156,8.60777 -5.5598,8.60777 z"
         id="path4745"
         inkscape:connector-curvature="0" />
      <path
         d="m 1178.3945,529.48311 c -0.3104,0.53622 -0.7902,1.80622 -1.016,2.65289 0.3105,0.98778 1.5805,1.58044 3.302,1.58044 2.4272,0 4.6567,-2.032 4.6567,-4.20511 0,-2.032 -2.286,-3.302 -3.556,-4.65666 -0.508,-0.53623 -0.8467,-1.07245 -0.8467,-1.69334 0,-0.87489 0.7056,-1.524 1.6087,-1.524 1.1289,0 2.032,0.73378 2.4553,1.97556 h 0.3952 c 0.254,-0.53622 0.7337,-1.524 0.9595,-2.20133 -0.5362,-0.70556 -1.6369,-1.12889 -2.9069,-1.12889 -2.3424,0 -4.4026,1.83444 -4.4026,3.95111 0,1.60866 1.4111,2.73755 2.6528,3.81 0.9596,0.81844 1.778,1.60866 1.778,2.56822 0,0.98778 -0.9031,1.80622 -1.9755,1.80622 -1.7498,0 -2.7093,-1.016 -2.7093,-2.93511 z"
         id="path4747"
         inkscape:connector-curvature="0" />
      <path
         d="m 1196.3677,522.484 c 0,-1.41111 -0.8185,-2.20133 -2.2296,-2.20133 -3.1609,0 -6.4064,4.43089 -6.4064,8.77711 0,2.87866 1.2418,4.65666 3.2738,4.65666 1.6086,0 3.4713,-1.41111 4.5437,-3.41489 l -0.4233,-0.67733 -0.3951,-0.0282 c -0.762,1.46755 -1.9756,2.42711 -3.1044,2.42711 -1.3265,0 -2.1167,-1.60867 -1.9756,-4.00756 4.826,-1.60866 6.7169,-3.16088 6.7169,-5.53155 z m -3.1327,-0.56444 c 0.7338,0 1.1289,0.45155 1.1289,1.29822 0,1.55222 -1.3264,2.59644 -4.6002,3.61244 0.4233,-2.68111 2.0038,-4.91066 3.4713,-4.91066 z"
         id="path4749"
         inkscape:connector-curvature="0" />
      <path
         d="m 1202.1921,531.74089 c 0.028,-4.14867 -0.1694,-7.70467 -0.5927,-11.03489 l -0.3105,-0.28222 c 0,0 -2.4553,0.45155 -4.1768,0.67733 l -0.085,1.07245 c 0,0 1.1571,-0.14112 1.4675,-0.14112 0.762,0 1.016,0.28223 1.1572,1.12889 0.4797,2.76578 0.9313,7.14022 1.016,10.18822 l 0.4233,0.33867 h 1.6369 c 1.5522,-2.42711 2.7093,-4.37444 3.5278,-5.92667 h 0.1975 l 0.5927,5.588 0.4233,0.33867 h 1.6369 c 3.6407,-5.47511 5.5316,-9.34155 5.5316,-11.26066 0,-0.95956 -0.3669,-1.72156 -0.9878,-2.14489 l -2.286,0.62089 -0.1129,0.47977 c 0,0 1.3547,0.73378 1.3547,2.20134 0,1.58044 -1.4394,4.71311 -3.7818,8.15622 h -0.254 l -0.762,-7.19667 c 0.3669,-0.93133 0.508,-1.524 0.508,-2.11666 0,-0.93134 -0.3669,-1.74978 -0.9878,-2.14489 l -1.5804,0.47977 -0.1976,0.28223 0.4798,4.03577 c -0.6209,1.83445 -1.8627,4.14867 -3.5842,6.66045 z"
         id="path4751"
         inkscape:connector-curvature="0" />
      <path
         d="m 1220.073,516.67022 c 1.016,0 1.778,-0.87489 1.778,-1.86266 0,-0.64912 -0.3951,-1.24178 -1.1571,-1.24178 -1.0442,0 -1.8062,0.90311 -1.8062,1.86266 0,0.62089 0.3951,1.24178 1.1853,1.24178 z m -1.3546,14.90133 c 0.7337,-5.24933 2.3424,-10.61155 2.3424,-10.61155 l -0.254,-0.33867 c 0,0 -2.8504,0.16934 -4.572,0.16934 l -0.1975,1.07244 h 1.1571 c 0.8466,0 1.1853,0.33867 1.1853,1.18533 0,0.98778 -1.4393,9.68023 -1.4393,9.68023 0,0.64911 0.2257,0.98777 0.8466,0.98777 0.6491,0 2.0038,-1.04422 3.9511,-2.99155 l -0.3668,-0.67734 -0.3387,-0.0282 c -1.6087,1.41111 -1.9473,1.66511 -2.2296,1.66511 z"
         id="path4753"
         inkscape:connector-curvature="0" />
      <path
         d="m 1232.4251,531.57155 c 0.508,-2.37066 2.3707,-6.63222 2.3707,-8.57955 0,-1.524 -0.9314,-2.70933 -2.1449,-2.70933 -1.7498,1.016 -3.7818,3.66889 -5.7291,7.47888 l -0.1411,-0.0847 c 0.5362,-3.302 1.7215,-6.71689 1.7215,-6.71689 l -0.254,-0.33867 c 0,0 -2.8504,0.16934 -4.572,0.16934 l -0.1975,1.07244 h 1.1571 c 0.8749,0 1.2135,0.33867 1.2135,1.12889 0,0.90311 -1.5522,10.38578 -1.5522,10.38578 l 0.1976,0.254 c 0.4515,0 1.7215,-0.47978 1.7497,-0.64911 l 0.3105,-2.31423 c 1.9473,-4.62844 4.064,-7.76111 5.2493,-7.76111 0.5645,0 0.9596,0.47978 0.9596,1.15711 0,1.94734 -2.1449,7.112 -2.1449,8.83356 0,0.53622 0.3104,0.81844 0.8749,0.81844 0.6491,0 1.9755,-1.016 3.9511,-2.99155 l -0.3669,-0.67734 -0.3387,-0.0282 c -1.6933,1.46756 -1.9473,1.66511 -2.2295,1.66511 z"
         id="path4755"
         inkscape:connector-curvature="0" />
      <path
         d="m 1241.342,530.92244 c -0.5644,0 -1.0724,-1.43933 -1.0724,-3.07622 0,-2.99155 1.6368,-5.92666 3.3302,-5.92666 0.7055,0 1.7215,0.31044 2.8504,0.87488 -2.3706,5.10823 -4.2615,8.128 -5.1082,8.128 z m -0.3669,2.22956 c 1.3547,-0.98778 2.2296,-2.11667 3.9793,-5.36222 l 0.2258,0.0564 -0.7055,5.842 c -0.3669,3.01978 -2.2296,4.85422 -4.6285,4.85422 -1.4958,0 -3.2173,-1.18533 -3.2173,-2.14489 0,-0.56444 2.5682,-1.94733 4.3462,-3.24555 z m 5.2493,0.22578 c 0.1412,-1.15711 0.2258,-4.85423 0.4516,-6.71689 0.1693,-1.49578 0.8749,-3.35845 2.2296,-5.87022 l -0.2258,-0.254 -0.8749,-0.42334 -0.1411,0.0282 -0.3105,0.70555 -2.8786,-0.45155 c -2.9634,0 -6.1525,4.54377 -6.1525,8.77711 0,1.72155 0.5362,3.07622 1.4394,3.61244 l -0.028,0.254 c -2.3424,1.38289 -4.2897,2.65289 -5.2775,3.44311 l -0.056,0.14111 c -0.1129,1.74978 2.1731,3.556 4.5156,3.556 3.1327,0 6.9144,-3.52778 7.3095,-6.80155 z"
         id="path4758"
         inkscape:connector-curvature="0" />
    </g>
    <g
       id="g4670"
       transform="matrix(-1,0,0,1,2366.321,-534.04178)">
      <path
         inkscape:connector-curvature="0"
         id="path4664"
         d="m 1206.321,868.45816 v -27.92965 l -8.0405,13.92645"
         style="fill:none;fill-rule:evenodd;stroke:#000000;stroke-width:2;stroke-linecap:round;stroke-linejoin:bevel;stroke-miterlimit:4;stroke-dasharray:none;stroke-opacity:1" />
      <path
         sodipodi:nodetypes="ccc"
         style="fill:none;fill-rule:evenodd;stroke:#000000;stroke-width:2;stroke-linecap:round;stroke-linejoin:bevel;stroke-miterlimit:4;stroke-dasharray:none;stroke-opacity:1"
         d="m 1206.321,868.45816 v -27.92965 l 8.0405,13.92645"
         id="path4666"
         inkscape:connector-curvature="0" />
      <path
         sodipodi:nodetypes="cc"
         inkscape:connector-curvature="0"
         id="path4668"
         d="m 1206.321,865.71781 v -25.1893"
         style="fill:none;fill-rule:evenodd;stroke:#000000;stroke-width:2;stroke-linecap:round;stroke-linejoin:miter;stroke-miterlimit:4;stroke-dasharray:none;stroke-opacity:1" />
    </g>
    <g
       transform="matrix(0,-1,-1,0,1858.0416,1711.3207)"
       id="g4679">
      <path
         style="fill:none;fill-rule:evenodd;stroke:#000000;stroke-width:2;stroke-linecap:round;stroke-linejoin:bevel;stroke-miterlimit:4;stroke-dasharray:none;stroke-opacity:1"
         d="m 1206.321,868.45816 v -27.92965 l -8.0405,13.92645"
         id="path4672"
         inkscape:connector-curvature="0" />
      <path
         inkscape:connector-curvature="0"
         id="path4675"
         d="m 1206.321,868.45816 v -27.92965 l 8.0405,13.92645"
         style="fill:none;fill-rule:evenodd;stroke:#000000;stroke-width:2;stroke-linecap:round;stroke-linejoin:bevel;stroke-miterlimit:4;stroke-dasharray:none;stroke-opacity:1"
         sodipodi:nodetypes="ccc" />
      <path
         style="fill:none;fill-rule:evenodd;stroke:#000000;stroke-width:2;stroke-linecap:round;stroke-linejoin:miter;stroke-miterlimit:4;stroke-dasharray:none;stroke-opacity:1"
         d="m 1206.321,865.71781 v -25.1893"
         id="path4677"
         inkscape:connector-curvature="0"
         sodipodi:nodetypes="cc" />
    </g>
    <g
       id="g4687"
       transform="matrix(0,-1,-1,0,1858.0416,1451.3207)">
      <path
         inkscape:connector-curvature="0"
         id="path4681"
         d="m 1206.321,868.45816 v -27.92965 l -8.0405,13.92645"
         style="fill:none;fill-rule:evenodd;stroke:#000000;stroke-width:2;stroke-linecap:round;stroke-linejoin:bevel;stroke-miterlimit:4;stroke-dasharray:none;stroke-opacity:1" />
      <path
         sodipodi:nodetypes="ccc"
         style="fill:none;fill-rule:evenodd;stroke:#000000;stroke-width:2;stroke-linecap:round;stroke-linejoin:bevel;stroke-miterlimit:4;stroke-dasharray:none;stroke-opacity:1"
         d="m 1206.321,868.45816 v -27.92965 l 8.0405,13.92645"
         id="path4683"
         inkscape:connector-curvature="0" />
      <path
         sodipodi:nodetypes="cc"
         inkscape:connector-curvature="0"
         id="path4685"
         d="m 1206.321,865.71781 v -25.1893"
         style="fill:none;fill-rule:evenodd;stroke:#000000;stroke-width:2;stroke-linecap:round;stroke-linejoin:miter;stroke-miterlimit:4;stroke-dasharray:none;stroke-opacity:1" />
    </g>
    <g
       transform="matrix(0,1,1,0,39.958536,-961.32135)"
       id="g4695">
      <path
         style="fill:none;fill-rule:evenodd;stroke:#000000;stroke-width:2;stroke-linecap:round;stroke-linejoin:bevel;stroke-miterlimit:4;stroke-dasharray:none;stroke-opacity:1"
         d="m 1206.321,868.45816 v -27.92965 l -8.0405,13.92645"
         id="path4689"
         inkscape:connector-curvature="0" />
      <path
         inkscape:connector-curvature="0"
         id="path4691"
         d="m 1206.321,868.45816 v -27.92965 l 8.0405,13.92645"
         style="fill:none;fill-rule:evenodd;stroke:#000000;stroke-width:2;stroke-linecap:round;stroke-linejoin:bevel;stroke-miterlimit:4;stroke-dasharray:none;stroke-opacity:1"
         sodipodi:nodetypes="ccc" />
      <path
         style="fill:none;fill-rule:evenodd;stroke:#000000;stroke-width:2;stroke-linecap:round;stroke-linejoin:miter;stroke-miterlimit:4;stroke-dasharray:none;stroke-opacity:1"
         d="m 1206.321,865.71781 v -25.1893"
         id="path4693"
         inkscape:connector-curvature="0"
         sodipodi:nodetypes="cc" />
    </g>
    <g
       id="g4703"
       transform="matrix(0,1,1,0,39.958536,-701.32135)">
      <path
         inkscape:connector-curvature="0"
         id="path4697"
         d="m 1206.321,868.45816 v -27.92965 l -8.0405,13.92645"
         style="fill:none;fill-rule:evenodd;stroke:#000000;stroke-width:2;stroke-linecap:round;stroke-linejoin:bevel;stroke-miterlimit:4;stroke-dasharray:none;stroke-opacity:1" />
      <path
         sodipodi:nodetypes="ccc"
         style="fill:none;fill-rule:evenodd;stroke:#000000;stroke-width:2;stroke-linecap:round;stroke-linejoin:bevel;stroke-miterlimit:4;stroke-dasharray:none;stroke-opacity:1"
         d="m 1206.321,868.45816 v -27.92965 l 8.0405,13.92645"
         id="path4699"
         inkscape:connector-curvature="0" />
      <path
         sodipodi:nodetypes="cc"
         inkscape:connector-curvature="0"
         id="path4701"
         d="m 1206.321,865.71781 v -25.1893"
         style="fill:none;fill-rule:evenodd;stroke:#000000;stroke-width:2;stroke-linecap:round;stroke-linejoin:miter;stroke-miterlimit:4;stroke-dasharray:none;stroke-opacity:1" />
    </g>
  </g>
  <g
     inkscape:label="border"
     inkscape:groupmode="layer"
     id="layer1"
     transform="translate(-415.27092,1194.7617)"
     style="display:inline"
     sodipodi:insensitive="true">
    <path
       inkscape:connector-curvature="0"
       style="opacity:1;fill:#f7f7f7;fill-opacity:0.58823529;stroke:#babdb6;stroke-width:2.64505267;stroke-linejoin:bevel;stroke-miterlimit:4;stroke-dasharray:none;stroke-opacity:1"
       d="M 416.59332,-1193.4393 V -176.08437 H 2733.9485 V -1193.4393 Z m 133.67763,133.6776 H 2600.2709 v 749.99973 H 550.27095 Z"
       id="rect4487" />
    <path
       inkscape:connector-curvature="0"
       id="rect4485"
       d="M 426.59348,-1183.4392 H 2723.9485 v 997.35503 H 426.59348 Z"
       style="opacity:1;fill:none;fill-opacity:1;stroke:#555753;stroke-width:2.64497089;stroke-linejoin:bevel;stroke-miterlimit:4;stroke-dasharray:2.64497094, 15.86982561;stroke-dashoffset:0;stroke-opacity:1" />
    <path
       style="fill:none;fill-rule:evenodd;stroke:#babdb6;stroke-width:2.64499998;stroke-linecap:butt;stroke-linejoin:miter;stroke-miterlimit:4;stroke-dasharray:none;stroke-opacity:1"
       d="m 2600.2709,-1059.7617 133.6776,-133.6776"
       id="path4748"
       inkscape:connector-curvature="0" />
    <path
       style="fill:none;fill-rule:evenodd;stroke:#babdb6;stroke-width:2.64499998;stroke-linecap:butt;stroke-linejoin:miter;stroke-miterlimit:4;stroke-dasharray:none;stroke-opacity:1"
       d="m 2600.2709,-309.76197 133.6776,133.67758"
       id="path4750"
       inkscape:connector-curvature="0" />
    <path
       style="fill:none;fill-rule:evenodd;stroke:#babdb6;stroke-width:2.64499998;stroke-linecap:butt;stroke-linejoin:miter;stroke-miterlimit:4;stroke-dasharray:none;stroke-opacity:1"
       d="M 550.27095,-309.76197 416.59332,-176.08439"
       id="path4752"
       inkscape:connector-curvature="0" />
    <path
       style="fill:none;fill-rule:evenodd;stroke:#babdb6;stroke-width:2.64499998;stroke-linecap:butt;stroke-linejoin:miter;stroke-miterlimit:4;stroke-dasharray:none;stroke-opacity:1"
       d="m 416.59332,-1193.4393 133.67763,133.6776"
       id="path4754"
       inkscape:connector-curvature="0" />
    <rect
       style="opacity:1;fill:none;fill-opacity:1;stroke:#000000;stroke-width:2.64499998;stroke-linejoin:bevel;stroke-miterlimit:4;stroke-dasharray:none;stroke-dashoffset:0;stroke-opacity:1"
       id="rect4768"
       width="2317.3552"
       height="1017.355"
       x="416.59332"
       y="-1193.4393" />
  </g>
  <g
     inkscape:groupmode="layer"
     id="layer3"
     inkscape:label="marks"
     style="display:inline"
     sodipodi:insensitive="true">
    <path
       inkscape:connector-curvature="0"
       id="path4555"
       d="M 497.00003,674.99972 H 1.3224128"
       style="display:inline;fill:none;fill-rule:evenodd;stroke:#888a85;stroke-width:2.64499998;stroke-linecap:butt;stroke-linejoin:miter;stroke-miterlimit:4;stroke-dasharray:2.6449999, 10.5799996;stroke-dashoffset:0;stroke-opacity:1" />
    <path
       style="display:inline;fill:none;fill-rule:evenodd;stroke:#888a85;stroke-width:2.64499998;stroke-linecap:butt;stroke-linejoin:miter;stroke-miterlimit:4;stroke-dasharray:2.6449999, 10.5799996;stroke-dashoffset:0;stroke-opacity:1"
       d="M 497.00002,614.99971 H 1.3224"
       id="path4553"
       inkscape:connector-curvature="0" />
    <path
       style="display:inline;fill:none;fill-rule:evenodd;stroke:#888a85;stroke-width:2.64499998;stroke-linecap:butt;stroke-linejoin:miter;stroke-miterlimit:4;stroke-dasharray:2.6449999, 10.5799996;stroke-dashoffset:0;stroke-opacity:1"
       d="M 135.00003,884.99973 H 1.3224"
       id="path4616"
       inkscape:connector-curvature="0"
       sodipodi:nodetypes="cc" />
    <path
       sodipodi:nodetypes="cc"
       inkscape:connector-curvature="0"
       id="path4629"
       d="M 2318.6776,884.99973 H 2185"
       style="display:inline;fill:none;fill-rule:evenodd;stroke:#888a85;stroke-width:2.64499998;stroke-linecap:butt;stroke-linejoin:miter;stroke-miterlimit:4;stroke-dasharray:2.6449999, 10.5799996;stroke-dashoffset:0;stroke-opacity:1" />
    <path
       inkscape:connector-curvature="0"
       id="path4638"
       d="M 2318.6776,614.99972 H 1823"
       style="display:inline;fill:none;fill-rule:evenodd;stroke:#888a85;stroke-width:2.64499998;stroke-linecap:butt;stroke-linejoin:miter;stroke-miterlimit:4;stroke-dasharray:2.6449999, 10.5799996;stroke-dashoffset:0;stroke-opacity:1" />
    <path
       style="display:inline;fill:none;fill-rule:evenodd;stroke:#888a85;stroke-width:2.64499998;stroke-linecap:butt;stroke-linejoin:miter;stroke-miterlimit:4;stroke-dasharray:2.6449999, 10.5799996;stroke-dashoffset:0;stroke-opacity:1"
       d="M 2318.6776,674.99972 H 1823"
       id="path4641"
       inkscape:connector-curvature="0" />
    <path
       sodipodi:nodetypes="cc"
       inkscape:connector-curvature="0"
       id="path4757"
       d="m 135.93518,884.9997 v 133.6776"
       style="display:inline;fill:none;fill-rule:evenodd;stroke:#888a85;stroke-width:2.64499998;stroke-linecap:butt;stroke-linejoin:miter;stroke-miterlimit:4;stroke-dasharray:2.6449999, 10.5799996;stroke-dashoffset:0;stroke-opacity:1" />
    <path
       style="display:inline;fill:none;fill-rule:evenodd;stroke:#888a85;stroke-width:2.64499998;stroke-linecap:butt;stroke-linejoin:miter;stroke-miterlimit:4;stroke-dasharray:2.6449999, 10.5799996;stroke-dashoffset:0;stroke-opacity:1"
       d="M 2184.0648,1018.6773 V 884.99972"
       id="path4759"
       inkscape:connector-curvature="0"
       sodipodi:nodetypes="cc" />
    <path
       sodipodi:nodetypes="cc"
       inkscape:connector-curvature="0"
       id="path4761"
       d="M 2185,135 V 1.322412"
       style="display:inline;fill:none;fill-rule:evenodd;stroke:#888a85;stroke-width:2.64499998;stroke-linecap:butt;stroke-linejoin:miter;stroke-miterlimit:4;stroke-dasharray:2.6449999, 10.5799996;stroke-dashoffset:0;stroke-opacity:1" />
    <path
       style="display:inline;fill:none;fill-rule:evenodd;stroke:#888a85;stroke-width:2.64499998;stroke-linecap:butt;stroke-linejoin:miter;stroke-miterlimit:4;stroke-dasharray:2.6449999, 10.5799996;stroke-dashoffset:0;stroke-opacity:1"
       d="m 2185,135 h 133.6776"
       id="path4763"
       inkscape:connector-curvature="0"
       sodipodi:nodetypes="cc" />
    <path
       style="display:inline;fill:none;fill-rule:evenodd;stroke:#888a85;stroke-width:2.64499998;stroke-linecap:butt;stroke-linejoin:miter;stroke-miterlimit:4;stroke-dasharray:2.6449999, 10.5799996;stroke-dashoffset:0;stroke-opacity:1"
       d="M 135.00003,135 V 1.32241"
       id="path4765"
       inkscape:connector-curvature="0"
       sodipodi:nodetypes="cc" />
    <path
       sodipodi:nodetypes="cc"
       inkscape:connector-curvature="0"
       id="path4767"
       d="M 1.322445,135 H 135.00003"
       style="display:inline;fill:none;fill-rule:evenodd;stroke:#888a85;stroke-width:2.64499998;stroke-linecap:butt;stroke-linejoin:miter;stroke-miterlimit:4;stroke-dasharray:2.6449999, 10.5799996;stroke-dashoffset:0;stroke-opacity:1" />
  </g>
  <g
     inkscape:groupmode="layer"
     id="g4791"
     inkscape:label="labels as outlines smaller"
     style="display:inline">
    <g
       aria-label="m"
       style="font-style:italic;font-variant:normal;font-weight:normal;font-stretch:normal;font-size:28.22222137px;line-height:5.29166651px;font-family:Alegreya;-inkscape-font-specification:'Alegreya, Italic';font-variant-ligatures:normal;font-variant-caps:normal;font-variant-numeric:normal;font-feature-settings:normal;text-align:start;letter-spacing:0px;word-spacing:0px;writing-mode:lr-tb;text-anchor:start;fill:#000000;fill-opacity:1;stroke:none;stroke-width:0.26458332px;stroke-linecap:butt;stroke-linejoin:miter;stroke-opacity:1"
       id="text4721">
      <path
         d="m 319.6689,865.77044 c 0.56445,-2.39889 2.51178,-6.66045 2.51178,-8.66422 0,-1.49578 -0.90311,-2.62467 -2.08844,-2.62467 -1.83445,1.07244 -3.97934,3.81 -5.842,7.47889 l -0.0847,-0.0847 c 0,0 1.15711,-3.81 1.15711,-4.76955 0,-1.43934 -0.98778,-2.62467 -2.17311,-2.62467 -1.72155,1.016 -3.69711,3.64067 -5.61622,7.47889 l -0.0847,-0.0847 c 0.53622,-3.302 1.72156,-6.71689 1.72156,-6.71689 l -0.254,-0.33866 c 0,0 -2.85045,0.16933 -4.572,0.16933 l -0.19756,1.07244 h 1.15711 c 0.87489,0 1.21356,0.33867 1.21356,1.12889 0,0.90311 -1.55222,10.38578 -1.55222,10.38578 l 0.19755,0.254 c 0.45156,0 1.72156,-0.47978 1.74978,-0.64911 l 0.31044,-2.39889 c 1.89089,-4.572 3.95112,-7.67644 5.08,-7.67644 0.56445,0 0.95956,0.47977 0.95956,1.15711 0,1.04422 -1.89089,9.31333 -1.89089,9.31333 l 0.19756,0.254 c 0.45155,0 1.72155,-0.47978 1.74977,-0.64911 l 0.33867,-1.83445 c 2.06022,-4.88244 4.318,-8.24088 5.53156,-8.24088 0.56444,0 0.95955,0.47977 0.95955,1.15711 0,1.91911 -2.31422,7.14022 -2.31422,8.83355 0,0.53622 0.31044,0.81845 0.87489,0.81845 0.59267,0 1.86267,-0.93134 4.00755,-2.99156 l -0.36688,-0.67733 -0.33867,-0.0282 c -1.74978,1.49577 -1.97556,1.66511 -2.25778,1.66511 z"
         style="font-style:italic;font-variant:normal;font-weight:normal;font-stretch:normal;font-size:28.22222137px;font-family:Alegreya;-inkscape-font-specification:'Alegreya, Italic';font-variant-ligatures:normal;font-variant-caps:normal;font-variant-numeric:normal;font-feature-settings:normal;text-align:start;writing-mode:lr-tb;text-anchor:start;fill:#000000;fill-opacity:1;stroke:none;stroke-width:0.26458332px"
         id="path4793"
         inkscape:connector-curvature="0" />
    </g>
    <g
       aria-label="k"
       style="font-style:italic;font-variant:normal;font-weight:normal;font-stretch:normal;font-size:28.22222137px;line-height:5.29166651px;font-family:Alegreya;-inkscape-font-specification:'Alegreya, Italic';font-variant-ligatures:normal;font-variant-caps:normal;font-variant-numeric:normal;font-feature-settings:normal;text-align:start;letter-spacing:0px;word-spacing:0px;writing-mode:lr-tb;text-anchor:start;fill:#000000;fill-opacity:1;stroke:none;stroke-width:0.26458332px;stroke-linecap:butt;stroke-linejoin:miter;stroke-opacity:1"
       id="text4725">
      <path
         d="m 474.12626,657.98545 0.36689,0.19756 1.72156,-0.90311 -0.0565,-0.33867 c 0,0 -1.66511,-1.89089 -3.44311,-4.68489 2.82223,-1.66511 4.34623,-3.49955 4.34623,-5.24933 0,-1.43933 -0.95956,-2.59644 -2.14489,-2.59644 -1.74978,1.016 -3.78178,3.66888 -5.72911,7.47888 l -0.14112,-0.0847 c 1.04423,-7.05556 2.85045,-14.64734 2.85045,-14.64734 l -0.254,-0.33866 c 0,0 -2.82222,0.16933 -4.54378,0.16933 l -0.16933,1.07245 h 1.15711 c 0.84667,0 1.18533,0.33866 1.18533,1.10066 0,1.12889 -2.70933,18.34445 -2.70933,18.34445 l 0.19755,0.254 c 0.45156,0 1.72156,-0.47978 1.74978,-0.64911 l 0.31045,-2.34245 c 1.91911,-4.54378 4.09222,-7.73289 5.27755,-7.73289 0.53622,0 0.93134,0.42334 0.93134,1.04422 0,1.38289 -1.21356,2.62467 -3.83823,3.95112 l -0.11289,0.42333 z"
         style="font-style:italic;font-variant:normal;font-weight:normal;font-stretch:normal;font-size:28.22222137px;font-family:Alegreya;-inkscape-font-specification:'Alegreya, Italic';font-variant-ligatures:normal;font-variant-caps:normal;font-variant-numeric:normal;font-feature-settings:normal;text-align:start;writing-mode:lr-tb;text-anchor:start;fill:#000000;fill-opacity:1;stroke:none;stroke-width:0.26458332px"
         id="path4796"
         inkscape:connector-curvature="0" />
    </g>
    <g
       aria-label="d"
       style="font-style:italic;font-variant:normal;font-weight:normal;font-stretch:normal;font-size:28.22222137px;line-height:5.29166651px;font-family:Alegreya;-inkscape-font-specification:'Alegreya, Italic';font-variant-ligatures:normal;font-variant-caps:normal;font-variant-numeric:normal;font-feature-settings:normal;text-align:start;letter-spacing:0px;word-spacing:0px;writing-mode:lr-tb;text-anchor:start;fill:#000000;fill-opacity:1;stroke:none;stroke-width:0.26458332px;stroke-linecap:butt;stroke-linejoin:miter;stroke-opacity:1"
       id="text4729">
      <path
         d="m 475.14228,520.91125 c 0.84666,-6.43467 3.44311,-18.542 3.44311,-18.542 l -0.254,-0.33867 c 0,0 -2.82223,0.16933 -4.54378,0.16933 l -0.16933,1.07245 h 1.15711 c 0.93133,0 1.27,0.36689 1.15711,1.24178 l -0.73378,5.55977 -2.032,-0.33866 c -3.16089,0 -6.46289,4.85422 -6.46289,9.48266 0,2.42711 0.81845,3.83822 2.25778,3.83822 1.778,-1.24177 3.41489,-3.33022 5.24933,-6.74511 l 0.19756,0.0565 c 0,0 -1.21356,5.30578 -1.21356,5.87022 0,0.53622 0.33867,0.81844 1.016,0.81844 0.59267,0 1.60867,-0.79022 3.95111,-2.99155 l -0.36689,-0.67733 -0.33866,-0.0282 c -1.83445,1.55223 -1.97556,1.66511 -2.22956,1.66511 z m -5.64445,-0.14112 c -0.45155,0 -0.81844,-1.29822 -0.81844,-2.93511 0,-3.35844 1.778,-6.57577 3.61244,-6.57577 0.73378,0 1.86267,0.36689 2.76578,0.90311 -2.06022,4.79778 -4.51556,8.60777 -5.55978,8.60777 z"
         style="font-style:italic;font-variant:normal;font-weight:normal;font-stretch:normal;font-size:28.22222137px;font-family:Alegreya;-inkscape-font-specification:'Alegreya, Italic';font-variant-ligatures:normal;font-variant-caps:normal;font-variant-numeric:normal;font-feature-settings:normal;text-align:start;writing-mode:lr-tb;text-anchor:start;fill:#000000;fill-opacity:1;stroke:none;stroke-width:0.26458332px"
         id="path4799"
         inkscape:connector-curvature="0" />
    </g>
    <g
       aria-label="d"
       style="font-style:italic;font-variant:normal;font-weight:normal;font-stretch:normal;font-size:28.22222137px;line-height:5.29166651px;font-family:Alegreya;-inkscape-font-specification:'Alegreya, Italic';font-variant-ligatures:normal;font-variant-caps:normal;font-variant-numeric:normal;font-feature-settings:normal;text-align:start;letter-spacing:0px;word-spacing:0px;writing-mode:lr-tb;text-anchor:start;fill:#000000;fill-opacity:1;stroke:none;stroke-width:0.26458332px;stroke-linecap:butt;stroke-linejoin:miter;stroke-opacity:1"
       id="text4733">
      <path
         d="m 475.14228,250.91128 c 0.84666,-6.43467 3.44311,-18.542 3.44311,-18.542 l -0.254,-0.33867 c 0,0 -2.82223,0.16933 -4.54378,0.16933 l -0.16933,1.07245 h 1.15711 c 0.93133,0 1.27,0.36689 1.15711,1.24178 l -0.73378,5.55977 -2.032,-0.33866 c -3.16089,0 -6.46289,4.85422 -6.46289,9.48266 0,2.42711 0.81845,3.83823 2.25778,3.83823 1.778,-1.24178 3.41489,-3.33023 5.24933,-6.74512 l 0.19756,0.0565 c 0,0 -1.21356,5.30578 -1.21356,5.87022 0,0.53622 0.33867,0.81845 1.016,0.81845 0.59267,0 1.60867,-0.79023 3.95111,-2.99156 l -0.36689,-0.67733 -0.33866,-0.0282 c -1.83445,1.55223 -1.97556,1.66512 -2.22956,1.66512 z m -5.64445,-0.14111 c -0.45155,0 -0.81844,-1.29823 -0.81844,-2.93512 0,-3.35844 1.778,-6.57577 3.61244,-6.57577 0.73378,0 1.86267,0.36689 2.76578,0.90311 -2.06022,4.79778 -4.51556,8.60778 -5.55978,8.60778 z"
         style="font-style:italic;font-variant:normal;font-weight:normal;font-stretch:normal;font-size:28.22222137px;font-family:Alegreya;-inkscape-font-specification:'Alegreya, Italic';font-variant-ligatures:normal;font-variant-caps:normal;font-variant-numeric:normal;font-feature-settings:normal;text-align:start;writing-mode:lr-tb;text-anchor:start;fill:#000000;fill-opacity:1;stroke:none;stroke-width:0.26458332px"
         id="path4802"
         inkscape:connector-curvature="0" />
    </g>
    <g
       aria-label="d"
       style="font-style:italic;font-variant:normal;font-weight:normal;font-stretch:normal;font-size:28.22222137px;line-height:5.29166651px;font-family:Alegreya;-inkscape-font-specification:'Alegreya, Italic';font-variant-ligatures:normal;font-variant-caps:normal;font-variant-numeric:normal;font-feature-settings:normal;text-align:start;letter-spacing:0px;word-spacing:0px;writing-mode:lr-tb;text-anchor:start;fill:#000000;fill-opacity:1;stroke:none;stroke-width:0.26458332px;stroke-linecap:butt;stroke-linejoin:miter;stroke-opacity:1"
       id="text4737">
      <path
         d="m 475.14228,790.91155 c 0.84666,-6.43467 3.44311,-18.542 3.44311,-18.542 l -0.254,-0.33866 c 0,0 -2.82223,0.16933 -4.54378,0.16933 l -0.16933,1.07244 h 1.15711 c 0.93133,0 1.27,0.36689 1.15711,1.24178 l -0.73378,5.55978 -2.032,-0.33867 c -3.16089,0 -6.46289,4.85422 -6.46289,9.48267 0,2.42711 0.81845,3.83822 2.25778,3.83822 1.778,-1.24178 3.41489,-3.33022 5.24933,-6.74511 l 0.19756,0.0564 c 0,0 -1.21356,5.30578 -1.21356,5.87023 0,0.53622 0.33867,0.81844 1.016,0.81844 0.59267,0 1.60867,-0.79022 3.95111,-2.99156 l -0.36689,-0.67733 -0.33866,-0.0282 c -1.83445,1.55222 -1.97556,1.66511 -2.22956,1.66511 z m -5.64445,-0.14111 c -0.45155,0 -0.81844,-1.29822 -0.81844,-2.93511 0,-3.35845 1.778,-6.57578 3.61244,-6.57578 0.73378,0 1.86267,0.36689 2.76578,0.90311 -2.06022,4.79778 -4.51556,8.60778 -5.55978,8.60778 z"
         style="font-style:italic;font-variant:normal;font-weight:normal;font-stretch:normal;font-size:28.22222137px;font-family:Alegreya;-inkscape-font-specification:'Alegreya, Italic';font-variant-ligatures:normal;font-variant-caps:normal;font-variant-numeric:normal;font-feature-settings:normal;text-align:start;writing-mode:lr-tb;text-anchor:start;fill:#000000;fill-opacity:1;stroke:none;stroke-width:0.26458332px"
         id="path4805"
         inkscape:connector-curvature="0" />
    </g>
    <g
       aria-label="k"
       style="font-style:italic;font-variant:normal;font-weight:normal;font-stretch:normal;font-size:28.22222137px;line-height:5.29166651px;font-family:Alegreya;-inkscape-font-specification:'Alegreya, Italic';font-variant-ligatures:normal;font-variant-caps:normal;font-variant-numeric:normal;font-feature-settings:normal;text-align:start;letter-spacing:0px;word-spacing:0px;writing-mode:lr-tb;text-anchor:start;fill:#000000;fill-opacity:1;stroke:none;stroke-width:0.26458332px;stroke-linecap:butt;stroke-linejoin:miter;stroke-opacity:1"
       id="text4741">
      <path
         d="m 474.12626,387.98545 0.36689,0.19756 1.72156,-0.90311 -0.0565,-0.33867 c 0,0 -1.66511,-1.89089 -3.44311,-4.68489 2.82223,-1.66511 4.34623,-3.49955 4.34623,-5.24933 0,-1.43933 -0.95956,-2.59644 -2.14489,-2.59644 -1.74978,1.016 -3.78178,3.66888 -5.72911,7.47888 l -0.14112,-0.0847 c 1.04423,-7.05556 2.85045,-14.64734 2.85045,-14.64734 l -0.254,-0.33866 c 0,0 -2.82222,0.16933 -4.54378,0.16933 l -0.16933,1.07245 h 1.15711 c 0.84667,0 1.18533,0.33866 1.18533,1.10066 0,1.12889 -2.70933,18.34445 -2.70933,18.34445 l 0.19755,0.254 c 0.45156,0 1.72156,-0.47978 1.74978,-0.64911 l 0.31045,-2.34245 c 1.91911,-4.54378 4.09222,-7.73289 5.27755,-7.73289 0.53622,0 0.93134,0.42334 0.93134,1.04422 0,1.38289 -1.21356,2.62467 -3.83823,3.95112 l -0.11289,0.42333 z"
         style="font-style:italic;font-variant:normal;font-weight:normal;font-stretch:normal;font-size:28.22222137px;font-family:Alegreya;-inkscape-font-specification:'Alegreya, Italic';font-variant-ligatures:normal;font-variant-caps:normal;font-variant-numeric:normal;font-feature-settings:normal;text-align:start;writing-mode:lr-tb;text-anchor:start;fill:#000000;fill-opacity:1;stroke:none;stroke-width:0.26458332px"
         id="path4808"
         inkscape:connector-curvature="0" />
    </g>
    <g
       aria-label="k"
       style="font-style:italic;font-variant:normal;font-weight:normal;font-stretch:normal;font-size:28.22222137px;line-height:5.29166651px;font-family:Alegreya;-inkscape-font-specification:'Alegreya, Italic';font-variant-ligatures:normal;font-variant-caps:normal;font-variant-numeric:normal;font-feature-settings:normal;text-align:start;letter-spacing:0px;word-spacing:0px;writing-mode:lr-tb;text-anchor:start;fill:#000000;fill-opacity:1;stroke:none;stroke-width:0.26458332px;stroke-linecap:butt;stroke-linejoin:miter;stroke-opacity:1"
       id="text4745">
      <path
         d="m 527.90385,867.36851 0.36689,0.19756 1.72156,-0.90311 -0.0565,-0.33867 c 0,0 -1.66511,-1.89089 -3.44311,-4.68489 2.82222,-1.66511 4.34622,-3.49956 4.34622,-5.24933 0,-1.43934 -0.95955,-2.59645 -2.14489,-2.59645 -1.74977,1.016 -3.78177,3.66889 -5.72911,7.47889 l -0.14111,-0.0847 c 1.04422,-7.05555 2.85045,-14.64733 2.85045,-14.64733 l -0.254,-0.33867 c 0,0 -2.82223,0.16934 -4.54378,0.16934 l -0.16933,1.07244 h 1.15711 c 0.84666,0 1.18533,0.33867 1.18533,1.10067 0,1.12889 -2.70933,18.34444 -2.70933,18.34444 l 0.19755,0.254 c 0.45156,0 1.72156,-0.47977 1.74978,-0.64911 l 0.31044,-2.34244 c 1.91912,-4.54378 4.09223,-7.73289 5.27756,-7.73289 0.53622,0 0.93133,0.42333 0.93133,1.04422 0,1.38289 -1.21355,2.62467 -3.83822,3.95111 l -0.11289,0.42334 z"
         style="font-style:italic;font-variant:normal;font-weight:normal;font-stretch:normal;font-size:28.22222137px;font-family:Alegreya;-inkscape-font-specification:'Alegreya, Italic';font-variant-ligatures:normal;font-variant-caps:normal;font-variant-numeric:normal;font-feature-settings:normal;text-align:start;writing-mode:lr-tb;text-anchor:start;fill:#000000;fill-opacity:1;stroke:none;stroke-width:0.26458332px"
         id="path4811"
         inkscape:connector-curvature="0" />
    </g>
    <g
       aria-label="k"
       style="font-style:italic;font-variant:normal;font-weight:normal;font-stretch:normal;font-size:28.22222137px;line-height:5.29166651px;font-family:Alegreya;-inkscape-font-specification:'Alegreya, Italic';font-variant-ligatures:normal;font-variant-caps:normal;font-variant-numeric:normal;font-feature-settings:normal;text-align:start;letter-spacing:0px;word-spacing:0px;writing-mode:lr-tb;text-anchor:start;fill:#000000;fill-opacity:1;stroke:none;stroke-width:0.26458332px;stroke-linecap:butt;stroke-linejoin:miter;stroke-opacity:1"
       id="text4749">
      <path
         d="m 949.81358,867.6331 0.36689,0.19755 1.72156,-0.90311 -0.0564,-0.33866 c 0,0 -1.66511,-1.89089 -3.44311,-4.68489 2.82222,-1.66511 4.34622,-3.49956 4.34622,-5.24934 0,-1.43933 -0.95955,-2.59644 -2.14489,-2.59644 -1.74977,1.016 -3.78177,3.66889 -5.72911,7.47889 l -0.14111,-0.0847 c 1.04422,-7.05555 2.85045,-14.64733 2.85045,-14.64733 l -0.254,-0.33867 c 0,0 -2.82223,0.16934 -4.54378,0.16934 l -0.16933,1.07244 h 1.15711 c 0.84666,0 1.18533,0.33867 1.18533,1.10067 0,1.12889 -2.70933,18.34444 -2.70933,18.34444 l 0.19755,0.254 c 0.45156,0 1.72156,-0.47978 1.74978,-0.64911 l 0.31044,-2.34245 c 1.91911,-4.54377 4.09223,-7.73288 5.27756,-7.73288 0.53622,0 0.93133,0.42333 0.93133,1.04422 0,1.38289 -1.21355,2.62466 -3.83822,3.95111 l -0.11289,0.42333 z"
         style="font-style:italic;font-variant:normal;font-weight:normal;font-stretch:normal;font-size:28.22222137px;font-family:Alegreya;-inkscape-font-specification:'Alegreya, Italic';font-variant-ligatures:normal;font-variant-caps:normal;font-variant-numeric:normal;font-feature-settings:normal;text-align:start;writing-mode:lr-tb;text-anchor:start;fill:#000000;fill-opacity:1;stroke:none;stroke-width:0.26458332px"
         id="path4814"
         inkscape:connector-curvature="0" />
    </g>
    <g
       aria-label="k"
       style="font-style:italic;font-variant:normal;font-weight:normal;font-stretch:normal;font-size:28.22222137px;line-height:5.29166651px;font-family:Alegreya;-inkscape-font-specification:'Alegreya, Italic';font-variant-ligatures:normal;font-variant-caps:normal;font-variant-numeric:normal;font-feature-settings:normal;text-align:start;letter-spacing:0px;word-spacing:0px;writing-mode:lr-tb;text-anchor:start;fill:#000000;fill-opacity:1;stroke:none;stroke-width:0.26458332px;stroke-linecap:butt;stroke-linejoin:miter;stroke-opacity:1"
       id="text4753">
      <path
         d="m 1371.635,868.12449 0.3669,0.19756 1.7215,-0.90311 -0.056,-0.33867 c 0,0 -1.6651,-1.89089 -3.4431,-4.68489 2.8222,-1.66511 4.3462,-3.49955 4.3462,-5.24933 0,-1.43934 -0.9596,-2.59645 -2.1449,-2.59645 -1.7498,1.016 -3.7818,3.66889 -5.7291,7.47889 l -0.1411,-0.0847 c 1.0442,-7.05556 2.8504,-14.64734 2.8504,-14.64734 l -0.254,-0.33866 c 0,0 -2.8222,0.16933 -4.5437,0.16933 l -0.1694,1.07244 h 1.1571 c 0.8467,0 1.1854,0.33867 1.1854,1.10067 0,1.12889 -2.7094,18.34444 -2.7094,18.34444 l 0.1976,0.254 c 0.4515,0 1.7215,-0.47977 1.7498,-0.64911 l 0.3104,-2.34244 c 1.9191,-4.54378 4.0922,-7.73289 5.2776,-7.73289 0.5362,0 0.9313,0.42333 0.9313,1.04422 0,1.38289 -1.2136,2.62467 -3.8382,3.95111 l -0.1129,0.42334 z"
         style="font-style:italic;font-variant:normal;font-weight:normal;font-stretch:normal;font-size:28.22222137px;font-family:Alegreya;-inkscape-font-specification:'Alegreya, Italic';font-variant-ligatures:normal;font-variant-caps:normal;font-variant-numeric:normal;font-feature-settings:normal;text-align:start;writing-mode:lr-tb;text-anchor:start;fill:#000000;fill-opacity:1;stroke:none;stroke-width:0.26458332px"
         id="path4817"
         inkscape:connector-curvature="0" />
    </g>
    <g
       aria-label="k"
       style="font-style:italic;font-variant:normal;font-weight:normal;font-stretch:normal;font-size:28.22222137px;line-height:5.29166651px;font-family:Alegreya;-inkscape-font-specification:'Alegreya, Italic';font-variant-ligatures:normal;font-variant-caps:normal;font-variant-numeric:normal;font-feature-settings:normal;text-align:start;letter-spacing:0px;word-spacing:0px;writing-mode:lr-tb;text-anchor:start;fill:#000000;fill-opacity:1;stroke:none;stroke-width:0.26458332px;stroke-linecap:butt;stroke-linejoin:miter;stroke-opacity:1"
       id="text4757">
      <path
         d="m 1792.5011,867.36851 0.3669,0.19756 1.7215,-0.90311 -0.056,-0.33867 c 0,0 -1.6651,-1.89089 -3.4431,-4.68489 2.8222,-1.66511 4.3462,-3.49956 4.3462,-5.24933 0,-1.43934 -0.9596,-2.59645 -2.1449,-2.59645 -1.7498,1.016 -3.7818,3.66889 -5.7291,7.47889 l -0.1411,-0.0847 c 1.0442,-7.05555 2.8504,-14.64733 2.8504,-14.64733 l -0.254,-0.33867 c 0,0 -2.8222,0.16934 -4.5438,0.16934 l -0.1693,1.07244 h 1.1571 c 0.8467,0 1.1854,0.33867 1.1854,1.10067 0,1.12889 -2.7094,18.34444 -2.7094,18.34444 l 0.1976,0.254 c 0.4515,0 1.7215,-0.47977 1.7498,-0.64911 l 0.3104,-2.34244 c 1.9191,-4.54378 4.0922,-7.73289 5.2776,-7.73289 0.5362,0 0.9313,0.42333 0.9313,1.04422 0,1.38289 -1.2136,2.62467 -3.8382,3.95111 l -0.1129,0.42334 z"
         style="font-style:italic;font-variant:normal;font-weight:normal;font-stretch:normal;font-size:28.22222137px;font-family:Alegreya;-inkscape-font-specification:'Alegreya, Italic';font-variant-ligatures:normal;font-variant-caps:normal;font-variant-numeric:normal;font-feature-settings:normal;text-align:start;writing-mode:lr-tb;text-anchor:start;fill:#000000;fill-opacity:1;stroke:none;stroke-width:0.26458332px"
         id="path4820"
         inkscape:connector-curvature="0" />
    </g>
    <g
       aria-label="m"
       style="font-style:italic;font-variant:normal;font-weight:normal;font-stretch:normal;font-size:28.22222137px;line-height:5.29166651px;font-family:Alegreya;-inkscape-font-specification:'Alegreya, Italic';font-variant-ligatures:normal;font-variant-caps:normal;font-variant-numeric:normal;font-feature-settings:normal;text-align:start;letter-spacing:0px;word-spacing:0px;writing-mode:lr-tb;text-anchor:start;fill:#000000;fill-opacity:1;stroke:none;stroke-width:0.26458332px;stroke-linecap:butt;stroke-linejoin:miter;stroke-opacity:1"
       id="text4761">
      <path
         d="m 741.66894,865.77044 c 0.56444,-2.39889 2.51177,-6.66045 2.51177,-8.66422 0,-1.49578 -0.90311,-2.62467 -2.08844,-2.62467 -1.83445,1.07244 -3.97933,3.81 -5.842,7.47889 l -0.0847,-0.0847 c 0,0 1.15711,-3.81 1.15711,-4.76955 0,-1.43934 -0.98777,-2.62467 -2.17311,-2.62467 -1.72155,1.016 -3.69711,3.64067 -5.61622,7.47889 l -0.0847,-0.0847 c 0.53623,-3.302 1.72156,-6.71689 1.72156,-6.71689 l -0.254,-0.33866 c 0,0 -2.85045,0.16933 -4.572,0.16933 l -0.19756,1.07244 h 1.15711 c 0.87489,0 1.21356,0.33867 1.21356,1.12889 0,0.90311 -1.55222,10.38578 -1.55222,10.38578 l 0.19755,0.254 c 0.45156,0 1.72156,-0.47978 1.74978,-0.64911 l 0.31045,-2.39889 c 1.89088,-4.572 3.95111,-7.67644 5.08,-7.67644 0.56444,0 0.95955,0.47977 0.95955,1.15711 0,1.04422 -1.89089,9.31333 -1.89089,9.31333 l 0.19756,0.254 c 0.45155,0 1.72155,-0.47978 1.74978,-0.64911 l 0.33866,-1.83445 c 2.06022,-4.88244 4.318,-8.24088 5.53156,-8.24088 0.56444,0 0.95955,0.47977 0.95955,1.15711 0,1.91911 -2.31422,7.14022 -2.31422,8.83355 0,0.53622 0.31045,0.81845 0.87489,0.81845 0.59267,0 1.86267,-0.93134 4.00755,-2.99156 l -0.36688,-0.67733 -0.33867,-0.0282 c -1.74978,1.49577 -1.97556,1.66511 -2.25778,1.66511 z"
         style="font-style:italic;font-variant:normal;font-weight:normal;font-stretch:normal;font-size:28.22222137px;font-family:Alegreya;-inkscape-font-specification:'Alegreya, Italic';font-variant-ligatures:normal;font-variant-caps:normal;font-variant-numeric:normal;font-feature-settings:normal;text-align:start;writing-mode:lr-tb;text-anchor:start;fill:#000000;fill-opacity:1;stroke:none;stroke-width:0.26458332px"
         id="path4823"
         inkscape:connector-curvature="0" />
    </g>
    <g
       aria-label="m"
       style="font-style:italic;font-variant:normal;font-weight:normal;font-stretch:normal;font-size:28.22222137px;line-height:5.29166651px;font-family:Alegreya;-inkscape-font-specification:'Alegreya, Italic';font-variant-ligatures:normal;font-variant-caps:normal;font-variant-numeric:normal;font-feature-settings:normal;text-align:start;letter-spacing:0px;word-spacing:0px;writing-mode:lr-tb;text-anchor:start;fill:#000000;fill-opacity:1;stroke:none;stroke-width:0.26458332px;stroke-linecap:butt;stroke-linejoin:miter;stroke-opacity:1"
       id="text4765">
      <path
         d="m 1163.6689,865.77044 c 0.5645,-2.39889 2.5118,-6.66045 2.5118,-8.66422 0,-1.49578 -0.9031,-2.62467 -2.0884,-2.62467 -1.8345,1.07244 -3.9794,3.81 -5.842,7.47889 l -0.085,-0.0847 c 0,0 1.1571,-3.81 1.1571,-4.76955 0,-1.43934 -0.9878,-2.62467 -2.1731,-2.62467 -1.7216,1.016 -3.6971,3.64067 -5.6162,7.47889 l -0.085,-0.0847 c 0.5362,-3.302 1.7216,-6.71689 1.7216,-6.71689 l -0.254,-0.33866 c 0,0 -2.8505,0.16933 -4.572,0.16933 l -0.1976,1.07244 h 1.1571 c 0.8749,0 1.2136,0.33867 1.2136,1.12889 0,0.90311 -1.5522,10.38578 -1.5522,10.38578 l 0.1975,0.254 c 0.4516,0 1.7216,-0.47978 1.7498,-0.64911 l 0.3104,-2.39889 c 1.8909,-4.572 3.9511,-7.67644 5.08,-7.67644 0.5645,0 0.9596,0.47977 0.9596,1.15711 0,1.04422 -1.8909,9.31333 -1.8909,9.31333 l 0.1976,0.254 c 0.4515,0 1.7215,-0.47978 1.7497,-0.64911 l 0.3387,-1.83445 c 2.0602,-4.88244 4.318,-8.24088 5.5316,-8.24088 0.5644,0 0.9595,0.47977 0.9595,1.15711 0,1.91911 -2.3142,7.14022 -2.3142,8.83355 0,0.53622 0.3104,0.81845 0.8749,0.81845 0.5926,0 1.8626,-0.93134 4.0075,-2.99156 l -0.3669,-0.67733 -0.3386,-0.0282 c -1.7498,1.49577 -1.9756,1.66511 -2.2578,1.66511 z"
         style="font-style:italic;font-variant:normal;font-weight:normal;font-stretch:normal;font-size:28.22222137px;font-family:Alegreya;-inkscape-font-specification:'Alegreya, Italic';font-variant-ligatures:normal;font-variant-caps:normal;font-variant-numeric:normal;font-feature-settings:normal;text-align:start;writing-mode:lr-tb;text-anchor:start;fill:#000000;fill-opacity:1;stroke:none;stroke-width:0.26458332px"
         id="path4826"
         inkscape:connector-curvature="0" />
    </g>
    <g
       aria-label="m"
       style="font-style:italic;font-variant:normal;font-weight:normal;font-stretch:normal;font-size:28.22222137px;line-height:5.29166651px;font-family:Alegreya;-inkscape-font-specification:'Alegreya, Italic';font-variant-ligatures:normal;font-variant-caps:normal;font-variant-numeric:normal;font-feature-settings:normal;text-align:start;letter-spacing:0px;word-spacing:0px;writing-mode:lr-tb;text-anchor:start;fill:#000000;fill-opacity:1;stroke:none;stroke-width:0.26458332px;stroke-linecap:butt;stroke-linejoin:miter;stroke-opacity:1"
       id="text4769">
      <path
         d="m 1585.6688,865.77044 c 0.5645,-2.39889 2.5118,-6.66045 2.5118,-8.66422 0,-1.49578 -0.9031,-2.62467 -2.0885,-2.62467 -1.8344,1.07244 -3.9793,3.81 -5.842,7.47889 l -0.085,-0.0847 c 0,0 1.1571,-3.81 1.1571,-4.76955 0,-1.43934 -0.9878,-2.62467 -2.1731,-2.62467 -1.7216,1.016 -3.6971,3.64067 -5.6162,7.47889 l -0.085,-0.0847 c 0.5362,-3.302 1.7215,-6.71689 1.7215,-6.71689 l -0.254,-0.33866 c 0,0 -2.8504,0.16933 -4.572,0.16933 l -0.1975,1.07244 h 1.1571 c 0.8749,0 1.2136,0.33867 1.2136,1.12889 0,0.90311 -1.5523,10.38578 -1.5523,10.38578 l 0.1976,0.254 c 0.4515,0 1.7215,-0.47978 1.7498,-0.64911 l 0.3104,-2.39889 c 1.8909,-4.572 3.9511,-7.67644 5.08,-7.67644 0.5645,0 0.9596,0.47977 0.9596,1.15711 0,1.04422 -1.8909,9.31333 -1.8909,9.31333 l 0.1975,0.254 c 0.4516,0 1.7216,-0.47978 1.7498,-0.64911 l 0.3387,-1.83445 c 2.0602,-4.88244 4.318,-8.24088 5.5315,-8.24088 0.5645,0 0.9596,0.47977 0.9596,1.15711 0,1.91911 -2.3142,7.14022 -2.3142,8.83355 0,0.53622 0.3104,0.81845 0.8749,0.81845 0.5926,0 1.8626,-0.93134 4.0075,-2.99156 l -0.3669,-0.67733 -0.3386,-0.0282 c -1.7498,1.49577 -1.9756,1.66511 -2.2578,1.66511 z"
         style="font-style:italic;font-variant:normal;font-weight:normal;font-stretch:normal;font-size:28.22222137px;font-family:Alegreya;-inkscape-font-specification:'Alegreya, Italic';font-variant-ligatures:normal;font-variant-caps:normal;font-variant-numeric:normal;font-feature-settings:normal;text-align:start;writing-mode:lr-tb;text-anchor:start;fill:#000000;fill-opacity:1;stroke:none;stroke-width:0.26458332px"
         id="path4829"
         inkscape:connector-curvature="0" />
    </g>
    <g
       aria-label="m"
       style="font-style:italic;font-variant:normal;font-weight:normal;font-stretch:normal;font-size:28.22222137px;line-height:5.29166651px;font-family:Alegreya;-inkscape-font-specification:'Alegreya, Italic';font-variant-ligatures:normal;font-variant-caps:normal;font-variant-numeric:normal;font-feature-settings:normal;text-align:start;letter-spacing:0px;word-spacing:0px;writing-mode:lr-tb;text-anchor:start;fill:#000000;fill-opacity:1;stroke:none;stroke-width:0.26458332px;stroke-linecap:butt;stroke-linejoin:miter;stroke-opacity:1"
       id="text4773">
      <path
         d="m 2007.6688,865.77044 c 0.5645,-2.39889 2.5118,-6.66045 2.5118,-8.66422 0,-1.49578 -0.9031,-2.62467 -2.0885,-2.62467 -1.8344,1.07244 -3.9793,3.81 -5.842,7.47889 l -0.085,-0.0847 c 0,0 1.1571,-3.81 1.1571,-4.76955 0,-1.43934 -0.9878,-2.62467 -2.1731,-2.62467 -1.7216,1.016 -3.6971,3.64067 -5.6162,7.47889 l -0.085,-0.0847 c 0.5362,-3.302 1.7215,-6.71689 1.7215,-6.71689 l -0.254,-0.33866 c 0,0 -2.8504,0.16933 -4.572,0.16933 l -0.1975,1.07244 h 1.1571 c 0.8749,0 1.2136,0.33867 1.2136,1.12889 0,0.90311 -1.5523,10.38578 -1.5523,10.38578 l 0.1976,0.254 c 0.4515,0 1.7215,-0.47978 1.7498,-0.64911 l 0.3104,-2.39889 c 1.8909,-4.572 3.9511,-7.67644 5.08,-7.67644 0.5645,0 0.9596,0.47977 0.9596,1.15711 0,1.04422 -1.8909,9.31333 -1.8909,9.31333 l 0.1975,0.254 c 0.4516,0 1.7216,-0.47978 1.7498,-0.64911 l 0.3387,-1.83445 c 2.0602,-4.88244 4.318,-8.24088 5.5315,-8.24088 0.5645,0 0.9596,0.47977 0.9596,1.15711 0,1.91911 -2.3142,7.14022 -2.3142,8.83355 0,0.53622 0.3104,0.81845 0.8749,0.81845 0.5926,0 1.8626,-0.93134 4.0075,-2.99156 l -0.3669,-0.67733 -0.3386,-0.0282 c -1.7498,1.49577 -1.9756,1.66511 -2.2578,1.66511 z"
         style="font-style:italic;font-variant:normal;font-weight:normal;font-stretch:normal;font-size:28.22222137px;font-family:Alegreya;-inkscape-font-specification:'Alegreya, Italic';font-variant-ligatures:normal;font-variant-caps:normal;font-variant-numeric:normal;font-feature-settings:normal;text-align:start;writing-mode:lr-tb;text-anchor:start;fill:#000000;fill-opacity:1;stroke:none;stroke-width:0.26458332px"
         id="path4832"
         inkscape:connector-curvature="0" />
    </g>
    <g
       aria-label="b"
       style="font-style:italic;font-variant:normal;font-weight:normal;font-stretch:normal;font-size:28.22222137px;line-height:5.29166651px;font-family:Alegreya;-inkscape-font-specification:'Alegreya, Italic';font-variant-ligatures:normal;font-variant-caps:normal;font-variant-numeric:normal;font-feature-settings:normal;text-align:start;letter-spacing:0px;word-spacing:0px;writing-mode:lr-tb;text-anchor:start;fill:#000000;fill-opacity:1;stroke:none;stroke-width:0.26458332px;stroke-linecap:butt;stroke-linejoin:miter;stroke-opacity:1"
       id="text4781"
       transform="translate(-312.44699)">
      <path
         d="m 466.79202,963.63905 0.28222,0.53623 c 0,0 1.63689,0.67733 3.61244,0.67733 3.27378,0 6.35,-4.28978 6.35,-8.89 0,-2.62467 -1.18533,-4.43089 -2.87866,-4.43089 -1.69334,1.38289 -3.07623,3.49956 -4.91067,7.45067 l -0.0847,-0.0565 c 1.04423,-7.05555 2.85045,-14.64733 2.85045,-14.64733 l -0.254,-0.33867 c 0,0 -2.82222,0.16934 -4.54378,0.16934 l -0.16933,1.07244 h 1.15711 c 0.84666,0 1.18533,0.33867 1.18533,1.10067 0,1.15711 -2.59644,17.35666 -2.59644,17.35666 z m 6.99911,-9.76489 c 0.67733,0 1.29822,1.63689 1.29822,3.44312 0,3.07622 -1.63689,6.01133 -3.33022,6.01133 -0.73378,0 -2.22956,-0.31045 -3.16089,-0.64911 2.34244,-5.44689 4.318,-8.80534 5.19289,-8.80534 z"
         style="font-style:italic;font-variant:normal;font-weight:normal;font-stretch:normal;font-size:28.22222137px;font-family:Alegreya;-inkscape-font-specification:'Alegreya, Italic';font-variant-ligatures:normal;font-variant-caps:normal;font-variant-numeric:normal;font-feature-settings:normal;text-align:start;writing-mode:lr-tb;text-anchor:start;fill:#000000;fill-opacity:1;stroke:none;stroke-width:0.26458332px"
         id="path4838"
         inkscape:connector-curvature="0" />
    </g>
    <g
       aria-label="a"
       style="font-style:italic;font-variant:normal;font-weight:normal;font-stretch:normal;font-size:28.22222137px;line-height:5.29166651px;font-family:Alegreya;-inkscape-font-specification:'Alegreya, Italic';font-variant-ligatures:normal;font-variant-caps:normal;font-variant-numeric:normal;font-feature-settings:normal;text-align:start;letter-spacing:0px;word-spacing:0px;writing-mode:lr-tb;text-anchor:start;fill:#000000;fill-opacity:1;stroke:none;stroke-width:0.26458332px;stroke-linecap:butt;stroke-linejoin:miter;stroke-opacity:1"
       id="text4772">
      <path
         d="m 70.771769,865.96801 c 0.733778,-5.24933 2.342445,-10.69622 2.342445,-10.69622 l -0.225778,-0.33867 -0.874889,-0.42333 -0.141111,0.0282 -0.254,0.70555 -2.822222,-0.45155 c -3.160889,0 -6.462889,4.85422 -6.462889,9.48267 0,2.42711 0.818444,3.83822 2.257778,3.83822 1.806222,-1.27 3.443111,-3.35845 5.277555,-6.74511 l 0.169333,0.0564 c 0,0 -1.213555,5.19289 -1.213555,5.87022 0,0.53623 0.338667,0.81845 1.016,0.81845 0.592667,0 1.665111,-0.81845 3.951111,-2.99156 l -0.366889,-0.67733 -0.338667,-0.0282 c -1.693333,1.46755 -1.947333,1.66511 -2.229555,1.66511 z m -5.644444,-0.14111 c -0.451556,0 -0.818444,-1.29822 -0.818444,-2.93511 0,-3.35845 1.777999,-6.57578 3.612444,-6.57578 0.762,0 1.919111,0.36689 2.850444,0.93133 -2.060222,4.71311 -4.600222,8.57956 -5.644444,8.57956 z"
         id="path4784"
         inkscape:connector-curvature="0" />
    </g>
    <g
       aria-label="c"
       style="font-style:italic;font-variant:normal;font-weight:normal;font-stretch:normal;font-size:28.22222137px;line-height:5.29166651px;font-family:Alegreya;-inkscape-font-specification:'Alegreya, Italic';font-variant-ligatures:normal;font-variant-caps:normal;font-variant-numeric:normal;font-feature-settings:normal;text-align:start;letter-spacing:0px;word-spacing:0px;writing-mode:lr-tb;text-anchor:start;fill:#000000;fill-opacity:1;stroke:none;stroke-width:0.26458332px;stroke-linecap:butt;stroke-linejoin:miter;stroke-opacity:1"
       id="text4780"
       transform="translate(0,81.283496)">
      <path
         d="m 33.913334,774.94787 c 0.762,0 1.467555,0.39511 2.060222,1.21355 l 0.395111,-0.0847 0.959556,-1.89089 -0.141111,-0.31045 c -0.536223,-0.36688 -1.439334,-0.59266 -2.398889,-0.59266 -3.217334,0 -6.378222,4.34622 -6.378222,8.77711 0,2.87867 1.241777,4.65667 3.273777,4.65667 1.608667,0 3.471334,-1.41112 4.543778,-3.41489 l -0.423333,-0.67734 -0.395111,-0.0282 c -0.677334,1.43933 -1.947334,2.45533 -3.076223,2.45533 -1.185333,0 -1.947333,-1.49577 -1.947333,-3.83822 0,-3.16089 1.749778,-6.26533 3.527778,-6.26533 z"
         style="fill:#000000;fill-opacity:1;stroke:none;stroke-width:0.26458332px"
         id="path4787"
         inkscape:connector-curvature="0" />
    </g>
  </g>
  <g
     inkscape:label="panel numbers as outlines"
     id="g5226"
     inkscape:groupmode="layer"
     sodipodi:insensitive="true">
    <g
       aria-label="1"
       style="font-style:normal;font-variant:normal;font-weight:500;font-stretch:normal;font-size:63.5px;line-height:5.29166651px;font-family:Butler;-inkscape-font-specification:'Butler, Medium';font-variant-ligatures:normal;font-variant-caps:normal;font-variant-numeric:normal;font-feature-settings:normal;text-align:start;letter-spacing:0px;word-spacing:0px;writing-mode:lr-tb;text-anchor:start;fill:#000000;fill-opacity:1;stroke:none;stroke-width:0.26458332px;stroke-linecap:butt;stroke-linejoin:miter;stroke-opacity:1"
       id="text5208">
      <path
         d="m 325.08054,261.6851 c -2.2225,0 -5.0165,-0.0635 -5.0165,-4.953 v -39.37 h -2.0955 l -11.049,8.5725 0.5715,0.889 c 1.143,-0.9525 5.842,-4.1275 5.842,1.0795 v 28.829 c 0,4.699 -2.9845,4.953 -5.588,4.953 v 0.9525 h 17.3355 z"
         style="font-style:normal;font-variant:normal;font-weight:500;font-stretch:normal;font-size:63.5px;font-family:Butler;-inkscape-font-specification:'Butler, Medium';font-variant-ligatures:normal;font-variant-caps:normal;font-variant-numeric:normal;font-feature-settings:normal;text-align:start;writing-mode:lr-tb;text-anchor:start;fill:#000000;fill-opacity:1;stroke:none;stroke-width:0.26458332px"
         id="path5228"
         inkscape:connector-curvature="0" />
    </g>
    <g
       aria-label="2"
       style="font-style:normal;font-variant:normal;font-weight:500;font-stretch:normal;font-size:63.5px;line-height:5.29166651px;font-family:Butler;-inkscape-font-specification:'Butler, Medium';font-variant-ligatures:normal;font-variant-caps:normal;font-variant-numeric:normal;font-feature-settings:normal;text-align:start;letter-spacing:0px;word-spacing:0px;writing-mode:lr-tb;text-anchor:start;fill:#000000;fill-opacity:1;stroke:none;stroke-width:0.26458332px;stroke-linecap:butt;stroke-linejoin:miter;stroke-opacity:1"
       id="text5212">
      <path
         d="m 750.192,253.48264 c -1.397,2.54 -3.683,3.6195 -5.842,3.6195 h -13.462 c 0,0 6.2865,-9.271 9.398,-13.335 5.0165,-6.477 7.6835,-10.287 7.6835,-14.478 0,-5.7785 -4.5085,-10.6045 -10.8585,-10.6045 0,0 -10.9855,-0.127 -12.065,11.938 l 0.9525,0.254 c 3.683,-11.4935 24.0665,-5.3975 13.1445,12.0015 l -14.224,21.082 h 23.3045 l 2.8575,-10.4775 z"
         id="path5231"
         inkscape:connector-curvature="0" />
    </g>
    <g
       aria-label="3"
       style="font-style:normal;font-variant:normal;font-weight:500;font-stretch:normal;font-size:63.5px;line-height:5.29166651px;font-family:Butler;-inkscape-font-specification:'Butler, Medium';font-variant-ligatures:normal;font-variant-caps:normal;font-variant-numeric:normal;font-feature-settings:normal;text-align:start;letter-spacing:0px;word-spacing:0px;writing-mode:lr-tb;text-anchor:start;fill:#000000;fill-opacity:1;stroke:none;stroke-width:0.26458332px;stroke-linecap:butt;stroke-linejoin:miter;stroke-opacity:1"
       id="text5216">
      <path
         d="m 1149.0152,259.55787 c 2.4765,2.032 6.0325,3.3655 11.049,3.3655 6.2865,0 15.3035,-3.3655 14.7955,-14.605 -0.1905,-4.2545 -3.6195,-8.636 -9.7155,-10.922 11.43,-8.5725 4.572,-20.32 -5.0165,-20.32 -0.5715,0 -10.4775,0 -11.4935,10.287 l 0.9525,0.1905 c 1.7145,-5.3975 8.8265,-6.604 12.319,-3.683 4.5085,3.81 4.2545,12.827 -5.9055,15.3035 v 1.016 c 9.652,1.016 11.8745,7.5565 12.1285,10.6045 0.5715,6.223 -1.5875,11.176 -8.0645,11.176 -5.08,0 -6.5405,-1.778 -5.969,-2.032 0.889,-0.381 1.524,-1.143 1.8415,-2.286 0.6985,-2.2225 -0.5715,-4.572 -2.794,-5.207 -2.2225,-0.6985 -4.572,0.5715 -5.207,2.794 -0.4445,1.5875 0,3.3655 1.0795,4.318 z"
         id="path5234"
         inkscape:connector-curvature="0" />
    </g>
    <g
       aria-label="4"
       style="font-style:normal;font-variant:normal;font-weight:500;font-stretch:normal;font-size:63.5px;line-height:5.29166651px;font-family:Butler;-inkscape-font-specification:'Butler, Medium';font-variant-ligatures:normal;font-variant-caps:normal;font-variant-numeric:normal;font-feature-settings:normal;text-align:start;letter-spacing:0px;word-spacing:0px;writing-mode:lr-tb;text-anchor:start;fill:#000000;fill-opacity:1;stroke:none;stroke-width:0.26458332px;stroke-linecap:butt;stroke-linejoin:miter;stroke-opacity:1"
       id="text5220">
      <path
         d="m 1582.889,247.32311 h -9.906 c -1.4605,0 -2.921,-0.0635 -0.8255,-2.9845 l 10.7315,-15.875 z m 14.097,3.8735 v -3.8735 h -6.35 v -28.1305 l -2.7305,-0.4445 -20.8915,31.496 v 0.9525 h 15.875 v 4.572 c 0,6.9215 -2.413,7.1755 -5.08,7.1755 v 0.9525 h 17.907 v -0.9525 c -2.667,0 -5.08,-0.127 -5.08,-7.493 v -4.2545 z"
         id="path5237"
         inkscape:connector-curvature="0" />
    </g>
    <g
       aria-label="5"
       style="font-style:normal;font-variant:normal;font-weight:500;font-stretch:normal;font-size:63.5px;line-height:5.29166651px;font-family:Butler;-inkscape-font-specification:'Butler, Medium';font-variant-ligatures:normal;font-variant-caps:normal;font-variant-numeric:normal;font-feature-settings:normal;text-align:start;letter-spacing:0px;word-spacing:0px;writing-mode:lr-tb;text-anchor:start;fill:#000000;fill-opacity:1;stroke:none;stroke-width:0.26458332px;stroke-linecap:butt;stroke-linejoin:miter;stroke-opacity:1"
       id="text5224">
      <path
         d="m 2017.7959,248.65661 c -0.381,-7.366 -7.239,-15.9385 -25.0825,-12.6365 l 1.8415,-10.2235 h 19.8755 l 2.2225,-7.112 h -21.971 l -4.2545,24.0665 c 14.986,-2.6035 20.3835,4.191 21.59,8.0645 1.778,6.096 -2.032,12.192 -10.3505,12.192 -4.699,0 -5.9055,-1.651 -5.08,-2.032 0.8255,-0.381 1.651,-1.2065 1.905,-2.3495 0.635,-2.286 -0.635,-4.6355 -2.8575,-5.2705 -2.286,-0.635 -4.699,0.6985 -5.334,2.921 -0.381,1.524 0.1905,3.3655 1.2065,4.3815 1.143,0.9525 4.064,3.302 10.16,3.302 8.4455,0 16.637,-4.7625 16.129,-15.3035 z"
         id="path5240"
         inkscape:connector-curvature="0" />
    </g>
  </g>
</svg>
