<?xml version="1.0" encoding="UTF-8" standalone="no"?>
<svg
   xmlns:dc="http://purl.org/dc/elements/1.1/"
   xmlns:cc="http://creativecommons.org/ns#"
   xmlns:rdf="http://www.w3.org/1999/02/22-rdf-syntax-ns#"
   xmlns:svg="http://www.w3.org/2000/svg"
   xmlns="http://www.w3.org/2000/svg"
   xmlns:sodipodi="http://sodipodi.sourceforge.net/DTD/sodipodi-0.dtd"
   xmlns:inkscape="http://www.inkscape.org/namespaces/inkscape"
   width="512"
   height="512"
   viewBox="0 0 135.46666 135.46667"
   version="1.1"
   id="svg895"
   inkscape:version="1.0beta2 (2b71d25, 2019-12-03)"
   sodipodi:docname="scissors-black-down.svg">
  <defs
     id="defs889" />
  <sodipodi:namedview
     id="base"
     pagecolor="#ffffff"
     bordercolor="#666666"
     borderopacity="1.0"
     inkscape:pageopacity="0.0"
     inkscape:pageshadow="2"
     inkscape:zoom="0.49497475"
     inkscape:cx="873.24494"
     inkscape:cy="256.187"
     inkscape:document-units="mm"
     inkscape:current-layer="layer1"
     inkscape:document-rotation="0"
     showgrid="false"
     units="px"
     inkscape:snap-page="true"
     showguides="true"
     inkscape:guide-bbox="true"
     inkscape:snap-object-midpoints="true"
     inkscape:snap-global="true"
     inkscape:window-width="1920"
     inkscape:window-height="1043"
     inkscape:window-x="0"
     inkscape:window-y="37"
     inkscape:window-maximized="1">
    <sodipodi:guide
       position="67.733329,67.733336"
       orientation="1,0"
       id="guide1554" />
    <sodipodi:guide
       position="67.733326,67.733339"
       orientation="0,-1"
       id="guide1556" />
  </sodipodi:namedview>
  <metadata
     id="metadata892">
    <rdf:RDF>
      <cc:Work
         rdf:about="">
        <dc:format>image/svg+xml</dc:format>
        <dc:type
           rdf:resource="http://purl.org/dc/dcmitype/StillImage" />
        <dc:title></dc:title>
      </cc:Work>
    </rdf:RDF>
  </metadata>
  <g
     inkscape:label="Layer 1"
     inkscape:groupmode="layer"
     id="layer1">
    <path
       style="fill:#000000;stroke-width:1.15721"
       d="M 52.498073,106.83908 67.948907,80.618465 64.641048,74.441096 C 61.301781,68.205092 59.927694,66.59458 58.85857,67.663704 58.536929,67.985346 53.103772,81.094742 46.784926,96.795659 36.219972,123.04718 33.835087,131.07446 36.171672,132.51855 c 0.48156,0.29762 7.828438,-11.25815 16.326401,-25.67947 z m 47.505637,21.80333 C 99.991454,127.05125 94.609425,112.47049 88.043494,96.240709 L 76.105447,66.732028 78.555539,62.393497 c 1.347553,-2.386193 5.053807,-7.151864 8.236114,-10.590387 5.62068,-6.073212 7.858282,-7.222983 18.136767,-9.319397 7.60705,-1.551546 14.84352,-11.737723 14.84352,-20.893977 0,-6.25499 -2.08628,-10.767858 -6.81895,-14.750132 C 105.85357,0.86583417 97.068597,1.862937 92.841549,9.122272 90.280793,13.52 76.179257,44.128098 74.042749,49.926026 c -2.009037,5.451999 -5.51338,7.72016 -9.277794,6.004977 C 63.195712,55.216011 62.948303,54.808244 61.911783,52.850322 60.875264,50.8924 44.653634,11.144856 40.442702,6.6011774 36.231752,2.0574993 29.546267,2.5927208 24.002797,5.9726092 c -15.0419204,9.1711868 -8.37545,34.9361458 9.7149,37.5466298 6.698485,0.96661 12.990419,5.548937 16.201465,9.860828 3.211049,4.31189 8.016731,10.641158 10.203934,11.616155 2.187203,0.975 9.457947,14.078648 19.191469,31.285888 9.733523,17.20724 18.375467,32.17855 19.204319,33.2696 1.364391,1.79598 1.504896,1.70994 1.484826,-0.9093 z M 92.978326,34.66064 c -2.537776,-3.999661 0.875703,-15.737782 6.237504,-21.449259 3.36192,-3.5811746 8.1983,-3.3891096 11.2145,0.445359 6.83336,8.687216 -1.86549,24.685749 -12.551614,23.084334 -2.176115,-0.326101 -4.38129,-1.262305 -4.90039,-2.080434 z m -62.982239,0.380599 c -6.96858,-4.249431 -9.6255,-15.543277 -5.03081,-21.384494 3.05044,-3.8780086 7.23617,-3.9345386 11.021835,-0.148882 6.478601,6.478599 9.706799,19.947959 5.384317,22.465571 -3.118137,1.816146 -7.450582,1.461099 -11.375342,-0.932219 z"
       id="path1550"
       inkscape:connector-curvature="0"
       sodipodi:nodetypes="sccsscscscsssssssczzsszzsccssscscscscc" />
  </g>
</svg>
